<?xml version="1.0"?>
<VTKFile type="PolyData" version="0.1" byte_order="LittleEndian" compressor="vtkZLibDataCompressor">
	<PolyData>
		<Piece NumberOfPoints="456" NumberOfVerts="0" NumberOfLines="0" NumberOfStrips="0" NumberOfPolys="908">
		<PointData Normals="Normals">
		<DataArray type="Float32" Name="Normals" NumberOfComponents="3" format="ascii">
			0.171877 0.769227 -0.615425
			0.318438 0.339365 -0.885115
			-0.053066 0.594978 -0.801989
			0.447568 0.731801 -0.513955
			0.121479 0.849914 -0.512728
			0.457618 0.816506 -0.352002
			-0.125128 0.291650 -0.948306
			-0.033120 0.020110 -0.999249
			0.195278 -0.128079 -0.972349
			0.523706 0.009660 -0.851845
			0.699488 0.216774 -0.680974
			0.659313 0.478885 -0.579634
			-0.198396 0.792925 -0.576115
			-0.408928 0.522950 -0.747864
			0.771316 0.553330 -0.314479
			0.028927 0.948950 -0.314097
			0.360382 0.907854 -0.214302
			0.655772 0.748387 -0.099403
			-0.410783 0.089363 -0.907343
			-0.162827 -0.235791 -0.958065
			0.211476 -0.321988 -0.922822
			0.593164 -0.213477 -0.776262
			0.779057 -0.077761 -0.622112
			0.879114 0.196705 -0.434127
			-0.279146 0.850344 -0.446086
			-0.516198 0.665947 -0.538566
			-0.648014 0.289224 -0.704576
			0.893604 0.443172 -0.071202
			-0.147644 0.982363 -0.114733
			0.141930 0.989866 -0.004498
			0.401318 0.910730 0.097543
			0.660468 0.723010 0.202581
			-0.497711 -0.164826 -0.851537
			-0.164755 -0.429541 -0.887891
			0.222817 -0.518612 -0.825467
			0.623690 -0.450298 -0.638939
			0.874505 -0.218810 -0.432855
			0.970420 0.079951 -0.227804
			-0.424964 0.870040 -0.249872
			-0.667506 0.626689 -0.402116
			-0.810450 0.271757 -0.518960
			-0.735385 -0.122609 -0.666465
			0.993011 0.078440 0.088176
			0.861201 0.433464 0.265409
			-0.513618 0.857633 0.025736
			-0.235722 0.960547 0.147599
			0.031435 0.964886 0.260780
			0.313650 0.862790 0.396506
			0.591008 0.619514 0.516635
			-0.469210 -0.470998 -0.746995
			-0.098394 -0.643830 -0.758816
			0.340018 -0.688124 -0.640994
			0.707828 -0.566802 -0.421561
			0.939569 -0.275454 -0.203313
			-0.769265 0.623924 -0.137663
			-0.927363 0.249269 -0.279039
			-0.885659 -0.191422 -0.423044
			-0.589243 -0.494927 -0.638623
			0.946467 -0.109928 0.303505
			0.820932 0.261126 0.507823
			-0.567135 0.796145 0.210976
			-0.830319 0.557281 0.003015
			-0.289018 0.883379 0.368930
			-0.009295 0.847320 0.531001
			0.258101 0.682565 0.683731
			0.477696 0.408957 0.777534
			-0.198456 -0.744877 -0.637003
			0.295011 -0.775323 -0.558429
			0.645507 -0.715697 -0.266642
			0.881509 -0.471317 0.028330
			-0.948971 0.219278 -0.226651
			-0.911243 -0.214087 -0.351856
			-0.656310 -0.614363 -0.437967
			-0.215565 -0.830276 -0.513978
			0.804863 -0.275352 0.525714
			0.699710 0.072997 0.710688
			-0.470036 0.725779 0.502306
			-0.753950 0.572877 0.321514
			-0.936009 0.295188 0.191711
			-0.238488 0.717589 0.654363
			0.019061 0.584304 0.811311
			0.204899 0.343994 0.916343
			0.378415 0.007563 0.925605
			0.209448 -0.869563 -0.447205
			0.682014 -0.707669 -0.184557
			0.801150 -0.571642 0.177158
			-0.997660 0.019490 -0.065524
			-0.859884 -0.497809 -0.113068
			-0.519264 -0.845054 -0.127468
			-0.261802 -0.951240 -0.163101
			0.595475 -0.613398 0.518799
			0.549832 -0.312349 0.774676
			-0.741798 0.361126 0.565088
			-0.548066 0.304211 0.779153
			-0.892945 0.137306 0.428715
			-0.957765 -0.220917 0.184072
			-0.416161 0.244516 0.875798
			-0.102876 0.214342 0.971326
			0.196270 -0.013800 0.980453
			0.378288 -0.348244 0.857686
			-0.122514 -0.982265 -0.141936
			0.138143 -0.990226 -0.019205
			0.428874 -0.888146 0.165119
			-0.707950 -0.686539 -0.165742
			-0.328163 -0.909328 -0.255797
			-0.169011 -0.975375 -0.141704
			0.355626 -0.740534 0.570211
			-0.820765 0.207058 0.532422
			-0.615473 0.365731 0.698165
			-0.995521 -0.063698 0.069864
			-0.828111 -0.396135 -0.396623
			-0.307367 0.466458 0.829423
			0.265103 0.208394 0.941432
			0.658207 -0.193260 0.727609
			0.057032 -0.998263 -0.014743
			0.221733 -0.945738 0.237519
			-0.273405 -0.654160 -0.705212
			0.264344 -0.842128 -0.470046
			0.707382 -0.517302 0.481675
			-0.757974 0.648301 0.071977
			-0.956526 0.240605 -0.164823
			-0.129176 0.927394 0.351075
			-0.869560 -0.051127 -0.491173
			-0.520485 -0.192038 -0.831995
			0.461873 0.717155 0.521882
			0.886939 0.187824 0.421974
			0.917115 -0.198466 0.345704
			0.663449 -0.747816 0.024644
			0.205690 -0.452709 -0.867610
			0.750421 -0.485831 -0.448148
			0.938016 -0.311033 0.152922
			-0.119200 0.987879 -0.099435
			-0.671955 0.677232 -0.299722
			-0.900176 0.300473 -0.315276
			-0.883793 0.184618 -0.429912
			0.504780 0.851656 0.140992
			-0.685755 0.073970 -0.724064
			-0.184751 -0.089582 -0.978695
			0.829015 0.482874 0.282074
			0.901564 -0.127231 0.413514
			0.935221 -0.175114 0.307729
			0.879608 -0.289728 0.377290
			0.612304 -0.378115 -0.694344
			0.942870 -0.270705 -0.194200
			0.023270 0.949417 -0.313154
			0.540604 0.837863 0.075712
			-0.176160 0.516790 -0.837792
			-0.559118 0.306157 -0.770490
			-0.481797 0.551585 -0.680901
			-0.627091 0.318605 -0.710807
			0.720009 0.524233 0.454715
			-0.606234 0.246803 -0.756022
			-0.034526 0.193758 -0.980441
			0.785984 -0.038303 0.617059
			0.858445 -0.202826 0.471100
			0.822123 -0.255535 0.508738
			0.938709 -0.309424 -0.151933
			0.944270 -0.122006 0.305728
			0.708902 -0.286114 -0.644668
			0.262608 0.904032 -0.337287
			0.371900 0.874579 0.311131
			0.598268 0.341668 0.724801
			0.625828 0.333799 -0.704924
			0.427206 -0.130065 -0.894750
			0.363475 0.324838 -0.873136
			-0.050366 0.414477 -0.908664
			-0.468432 0.320957 -0.823139
			0.705928 -0.058699 0.705847
			-0.378641 0.554098 -0.741354
			-0.317080 0.647491 -0.692976
			0.400777 0.293772 -0.867799
			0.848343 -0.095578 0.520748
			0.772029 -0.180815 0.609324
			0.807398 -0.176477 0.562997
			0.832025 -0.131078 0.539030
			0.762754 -0.248747 -0.596936
			0.771194 -0.157928 -0.616699
			0.965180 0.083877 -0.247776
			0.191770 0.954323 0.229110
			0.203580 0.357215 0.911566
			0.466385 0.020803 0.884337
			0.242899 0.897918 -0.367074
			0.317728 0.127130 -0.939621
			0.046758 0.102726 -0.993610
			-0.339918 0.089631 -0.936174
			-0.541399 0.070310 -0.837821
			-0.723460 0.382251 -0.574882
			0.754628 -0.244765 0.608792
			0.684738 -0.100969 0.721761
			-0.481120 0.561258 -0.673434
			-0.008591 0.248965 -0.968474
			0.775189 -0.208986 -0.596160
			0.930929 0.130388 0.341131
			0.797781 0.036310 0.601853
			0.724877 -0.104096 0.680968
			0.998706 -0.009014 0.050051
			0.698571 -0.318571 -0.640710
			0.537769 -0.143625 -0.830769
			0.724385 -0.005442 -0.689375
			-0.196736 0.673664 0.712370
			-0.392426 0.906941 0.153164
			0.015453 0.241539 0.970268
			0.377521 0.188479 0.906617
			-0.718173 0.580767 -0.383323
			-0.737765 0.020405 -0.674749
			-0.831330 -0.032436 -0.554832
			-0.837465 -0.214257 -0.502738
			-0.905091 -0.225381 -0.360573
			-0.956928 0.026942 -0.289072
			0.465522 -0.351936 0.812054
			0.567549 -0.162193 0.807207
			-0.522970 -0.205564 -0.827191
			0.463778 -0.491766 -0.736937
			0.690353 -0.441075 -0.573468
			0.936043 0.162720 0.312005
			0.781192 0.152756 0.605312
			0.557228 -0.021571 0.830079
			0.950158 0.064090 -0.305110
			0.398164 -0.266899 -0.877628
			0.596729 -0.062286 -0.800023
			-0.299968 0.430032 0.851523
			-0.660295 0.571768 0.486921
			-0.923195 0.370556 0.101973
			0.018214 0.206845 0.978204
			-0.987984 0.083701 -0.129929
			-0.997432 -0.070555 0.012234
			-0.961136 -0.261404 0.088797
			-0.932130 -0.349557 -0.094580
			-0.950788 -0.308065 -0.033124
			-0.895752 -0.348906 -0.275488
			-0.872994 -0.428433 -0.233080
			0.049748 -0.403546 0.913606
			0.120296 -0.336986 0.933793
			-0.210903 -0.772422 -0.599069
			0.264782 -0.700985 -0.662202
			0.876878 0.171309 0.449153
			0.969597 0.137133 -0.202672
			0.630427 0.067481 0.773310
			0.001087 -0.129440 0.991587
			0.411583 0.003220 0.911366
			0.572758 -0.035105 -0.818973
			0.055747 -0.309779 -0.949173
			-0.534684 0.189653 0.823495
			-0.830189 0.151717 0.536441
			-0.938391 0.059584 0.340402
			-0.380192 -0.295981 0.876270
			-0.921587 -0.201557 0.331742
			-0.901059 -0.432174 0.036318
			-0.861276 -0.302216 0.408496
			-0.812593 -0.325601 0.483402
			-0.552668 -0.737422 -0.388287
			-0.882852 -0.412672 -0.224220
			-0.415764 -0.383573 0.824629
			0.790977 0.164425 0.589338
			0.958281 0.204271 -0.199928
			0.542700 0.077452 -0.836349
			-0.535421 -0.210050 0.818049
			-0.192552 -0.097243 0.976457
			0.382732 0.056416 0.922135
			-0.219579 -0.146282 -0.964565
			-0.525148 -0.351361 -0.775090
			-0.708630 -0.209236 0.673843
			-0.772659 -0.280837 0.569323
			-0.806325 -0.240442 -0.540396
			-0.909760 -0.248324 0.332674
			0.638919 0.145747 0.755341
			0.979602 0.200684 -0.010259
			0.290711 0.065146 -0.954590
			-0.301132 -0.082440 0.950012
			-0.148119 -0.058781 0.987221
			-0.716103 -0.178038 -0.674906
			-0.931849 -0.254496 0.258633
			0.529757 0.078621 0.844498
			0.976565 0.184783 0.110348
			0.362021 0.112054 -0.925410
			-0.707220 -0.108531 -0.698614
			-0.326094 -0.147147 0.933815
			-0.957045 -0.246037 0.153402
			0.531704 0.005436 0.846914
			0.990967 0.126313 0.045060
			0.374010 0.096770 -0.922362
			-0.739730 -0.066945 -0.669566
			-0.977258 -0.175559 0.118941
			-0.431588 -0.153497 0.888915
			0.570855 -0.018608 0.820841
			0.985769 0.116524 -0.121163
			0.235225 0.124359 -0.963952
			-0.783515 -0.007287 -0.621330
			-0.976519 -0.120971 0.178260
			-0.444784 -0.138864 0.884808
			0.609771 -0.044537 0.791325
			0.986822 0.088457 -0.135491
			0.244609 0.124621 -0.961580
			-0.782172 0.023892 -0.622604
			-0.964453 -0.082814 0.250939
			-0.378264 -0.140804 0.914927
			0.490000 -0.094735 0.866559
			0.998364 0.031544 -0.047698
			0.294775 0.145611 -0.944407
			-0.724783 0.081749 -0.684109
			-0.976413 -0.012995 0.215525
			-0.393218 -0.098234 0.914183
			-0.044369 -0.086393 0.995273
			0.768541 -0.069389 0.636026
			0.986046 0.010714 -0.166127
			0.394178 0.145126 -0.907503
			-0.559050 0.123320 -0.819912
			-0.973729 0.052881 -0.221483
			-0.744611 -0.028449 0.666891
			-0.134248 -0.051620 0.989602
			0.692116 -0.083522 0.716938
			0.996800 -0.017733 -0.077950
			0.489711 0.159442 -0.857183
			-0.593955 0.194331 -0.780674
			-0.940137 0.093294 -0.327777
			-0.855891 0.052035 0.514531
			-0.143007 0.090776 0.985550
			0.640076 0.000842 0.768310
			0.990473 -0.037185 -0.132594
			0.685286 0.160356 -0.710401
			-0.491935 0.386152 -0.780313
			-0.952773 0.173686 -0.249111
			-0.949789 0.199697 0.240877
			-0.618755 0.540418 0.570167
			0.170309 0.242130 0.955179
			0.864367 0.239849 0.441975
			0.972201 0.134555 -0.191629
			0.819771 0.156127 -0.550999
			0.002196 0.539747 -0.841824
			-0.896780 0.372638 -0.238592
			-0.920008 0.360711 -0.153214
			-0.439936 0.794153 0.419257
			0.109850 0.408202 0.906258
			-0.621321 0.742072 -0.251573
			0.395210 0.198857 0.896808
			0.808867 0.175349 0.561237
			0.984825 0.098965 -0.142569
			0.983273 0.136491 -0.120598
			0.835491 0.297415 -0.462061
			0.737264 0.419877 -0.529288
			0.165454 0.693490 -0.701211
			-0.846183 0.518892 -0.121348
			-0.792489 0.603878 -0.085395
			-0.755841 0.637085 -0.151081
			-0.404251 0.688164 0.602504
			-0.505480 0.810528 -0.295860
			0.025761 0.345463 0.938079
			0.301936 0.040160 0.952482
			-0.626558 0.603285 -0.493430
			0.401529 -0.051687 0.914386
			0.902619 -0.137545 0.407873
			0.921164 -0.322741 -0.217479
			0.952612 -0.280670 0.117277
			0.997718 0.060748 -0.029459
			0.835680 0.185502 -0.516942
			0.750407 0.224889 -0.621541
			0.716977 0.011395 -0.697004
			0.383183 0.147170 -0.911873
			-0.235944 0.696980 -0.677162
			-0.600155 0.779822 -0.178020
			-0.584910 0.802091 0.120546
			-0.870693 0.488057 -0.060778
			-0.688688 0.527057 0.497914
			-0.377543 0.132901 0.916405
			-0.775567 0.631265 -0.000422
			-0.544473 0.202639 -0.813932
			-0.701491 0.440556 -0.560197
			-0.075182 -0.210649 0.974666
			0.213858 -0.275940 0.937081
			-0.953688 -0.233465 -0.189666
			0.254719 -0.217120 0.942325
			0.393452 -0.184157 0.900712
			0.818728 -0.532809 0.214008
			0.735518 -0.624641 -0.262367
			0.726828 -0.660640 0.187816
			0.740223 -0.383402 0.552334
			0.964103 -0.208637 -0.164242
			0.792781 -0.028527 -0.608838
			0.772953 0.025582 -0.633947
			0.620435 -0.206803 -0.756500
			0.272649 -0.124214 -0.954062
			-0.253919 0.194416 -0.947485
			-0.449060 0.746288 -0.491324
			-0.249924 0.963816 -0.092715
			-0.309008 0.871868 0.379949
			-0.649072 0.394715 0.650312
			-0.974521 0.218788 0.049414
			-0.686103 0.047702 0.725939
			-0.322874 -0.135881 0.936637
			-0.910747 0.044326 -0.410579
			-0.503922 -0.248063 -0.827362
			-0.530696 -0.149172 -0.834331
			-0.098714 -0.155848 0.982836
			0.138993 -0.219007 0.965773
			-0.576217 -0.069603 0.814328
			-0.914652 -0.396528 0.078597
			0.226097 -0.242773 0.943367
			0.420982 -0.673850 0.607208
			0.484654 -0.863571 -0.139121
			0.361167 -0.908773 -0.209020
			0.306483 -0.836201 0.454794
			0.661589 -0.700060 0.268729
			0.753948 -0.104584 -0.648557
			0.689684 -0.141916 -0.710068
			0.532590 -0.274936 -0.800474
			0.252834 -0.258192 -0.932422
			-0.166179 -0.023060 -0.985826
			-0.684151 0.163314 -0.710820
			-0.632567 0.765931 0.114928
			-0.517229 0.346810 0.782431
			-0.861301 -0.438283 -0.257038
			-0.854616 -0.313704 0.413790
			-0.566894 -0.400668 0.719788
			-0.635708 -0.595824 -0.490783
			-0.356972 -0.534972 -0.765751
			-0.142337 -0.650226 0.746289
			0.162719 -0.674351 0.720259
			-0.640993 -0.231223 0.731890
			-0.497143 -0.230179 0.836580
			-0.452941 -0.488929 0.745515
			-0.577100 -0.771896 0.266707
			-0.388345 -0.791064 -0.472658
			0.158576 -0.971887 0.174039
			0.166016 -0.969012 -0.182909
			-0.050321 -0.971722 0.230704
			-0.072160 -0.922977 -0.378029
			0.062678 -0.838021 0.542026
			0.268530 -0.891965 0.363717
			0.621616 -0.662234 -0.418378
			0.567245 -0.130603 -0.813127
			0.437196 -0.285951 -0.852696
			0.168201 -0.271719 -0.947564
			-0.101734 -0.241779 -0.964983
			-0.766223 -0.382196 -0.516554
			-0.983794 0.080624 0.160153
			-0.419521 -0.782099 -0.460786
			-0.608379 -0.763817 -0.215544
			-0.431638 -0.902028 -0.005884
			-0.165469 -0.826862 -0.537512
			-0.098384 -0.994209 0.043246
			-0.865423 -0.465356 0.185707
			-0.560946 -0.557240 0.612228
			-0.380055 -0.684735 0.621849
			-0.293153 -0.694379 0.657190
			-0.055603 -0.975482 -0.212939
			-0.120303 -0.862297 0.491905
			0.142201 -0.986704 0.078698
			0.409637 -0.462902 -0.786078
			0.039704 -0.452698 -0.890780
			-0.438395 -0.569602 -0.695243
			-0.714752 -0.698365 -0.037629
			-0.253348 -0.919024 -0.302011
			-0.525524 -0.803691 0.279115
			-0.223595 -0.967776 0.115823
			-0.028184 -0.900940 -0.433026
			-0.387389 -0.899922 -0.200177
		</DataArray>
	</PointData>
	<Points>
		<DataArray type="Float32" NumberOfComponents="3" format="ascii">
			0.001796 0.016249 -0.015896
			0.007414 0.007692 -0.019077
			-0.003502 0.013279 -0.018974
			0.008938 0.016125 -0.013592
			0.001469 0.018877 -0.012441
			0.012986 0.015966 -0.009027
			-0.006424 0.006291 -0.021594
			-0.003032 -0.002121 -0.023379
			0.005532 -0.006548 -0.021850
			0.013646 -0.000887 -0.019211
			0.016959 0.004164 -0.014048
			0.014805 0.012429 -0.011953
			-0.004227 0.016495 -0.015331
			-0.009585 0.010363 -0.018628
			0.018975 0.010411 -0.007015
			-0.000393 0.021308 -0.006877
			0.008637 0.019701 -0.004942
			0.015538 0.016048 -0.002326
			-0.010382 0.001715 -0.021255
			-0.005166 -0.005448 -0.022228
			0.005075 -0.009522 -0.020972
			0.013626 -0.006751 -0.018368
			0.018489 -0.003108 -0.013904
			0.020597 0.001930 -0.010364
			-0.006922 0.019192 -0.010102
			-0.012369 0.013950 -0.013556
			-0.014864 0.005730 -0.017303
			0.020553 0.009689 -0.000245
			-0.002690 0.022348 -0.001584
			0.002876 0.022200 0.001128
			0.009078 0.020082 0.003320
			0.015937 0.015206 0.005591
			-0.011982 -0.004399 -0.020077
			-0.004620 -0.010546 -0.020768
			0.005600 -0.012411 -0.019380
			0.014126 -0.010553 -0.015933
			0.020277 -0.005899 -0.009975
			0.023136 0.001342 -0.002690
			-0.009063 0.020270 -0.004742
			-0.015021 0.015534 -0.008238
			-0.018795 0.006679 -0.012414
			-0.017302 -0.002225 -0.016013
			0.023756 -0.000449 0.000735
			0.020558 0.009162 0.005700
			-0.012133 0.019605 0.001074
			-0.005881 0.021704 0.003432
			-0.000035 0.021757 0.006599
			0.005684 0.019940 0.009556
			0.013224 0.013512 0.013010
			-0.011397 -0.010096 -0.018114
			-0.003178 -0.014178 -0.018456
			0.006241 -0.016388 -0.016012
			0.016141 -0.012908 -0.011120
			0.021329 -0.008721 -0.005361
			-0.017588 0.014896 -0.002306
			-0.021247 0.006621 -0.007028
			-0.020390 -0.003732 -0.010999
			-0.014282 -0.011757 -0.014488
			0.022141 -0.004367 0.006722
			0.018490 0.005696 0.012641
			-0.015177 0.016801 0.005035
			-0.020491 0.011200 -0.000171
			-0.008446 0.019490 0.008774
			-0.001343 0.018861 0.012971
			0.005264 0.015084 0.016723
			0.010318 0.009620 0.018716
			-0.005250 -0.016009 -0.016304
			0.005548 -0.018270 -0.014094
			0.015565 -0.015782 -0.007469
			0.021583 -0.010242 -0.000083
			-0.022955 0.001321 -0.004276
			-0.020508 -0.007808 -0.008337
			-0.012622 -0.014437 -0.014474
			-0.002787 -0.017899 -0.014873
			0.017967 -0.004878 0.014384
			0.015163 0.001825 0.018033
			-0.009971 0.016828 0.012636
			-0.016056 0.014765 0.008762
			-0.021196 0.008939 0.004298
			-0.004969 0.015565 0.017011
			-0.000625 0.013495 0.019381
			0.003352 0.008292 0.021606
			0.008881 -0.000378 0.021952
			0.008292 -0.019318 -0.010624
			0.015230 -0.017412 -0.000600
			0.018767 -0.012535 0.007051
			-0.024002 0.000763 -0.000025
			-0.022301 -0.006854 -0.004234
			-0.014833 -0.014041 -0.008512
			-0.005494 -0.017599 -0.010460
			0.015242 -0.015554 0.009793
			0.012818 -0.007359 0.018424
			-0.017586 0.010782 0.011382
			-0.011332 0.012226 0.016200
			-0.021152 0.004045 0.007003
			-0.022232 -0.003625 0.004613
			-0.006078 0.009989 0.020637
			-0.000089 0.005694 0.022766
			0.002733 -0.001754 0.023487
			0.006838 -0.009257 0.020359
			0.002568 -0.019788 -0.008321
			0.007946 -0.020501 -0.004814
			0.013238 -0.018739 0.002686
			-0.017956 -0.012253 -0.001956
			-0.009991 -0.016572 -0.004400
			-0.002549 -0.019128 -0.003655
			0.008841 -0.015612 0.014893
			-0.016957 -0.001319 0.012636
			-0.010864 0.003803 0.015875
			-0.020026 -0.009408 0.008650
			-0.016530 -0.016722 0.003545
			-0.006195 0.001468 0.020072
			-0.000816 -0.002059 0.023952
			0.002788 -0.009303 0.022247
			0.003436 -0.019542 -0.000199
			0.008042 -0.018849 0.006373
			-0.010244 -0.020660 0.001787
			-0.001660 -0.021786 0.005220
			0.004592 -0.015123 0.017671
			-0.018229 -0.007323 0.021450
			-0.021488 -0.015170 0.016420
			-0.011705 -0.003081 0.025497
			-0.018973 -0.021184 0.010758
			-0.016051 -0.027233 0.008125
			-0.005535 -0.006393 0.029633
			-0.002379 -0.014049 0.029948
			-0.001979 -0.021305 0.027459
			0.004150 -0.019496 0.011944
			-0.010709 -0.030086 0.007747
			-0.004589 -0.030820 0.012323
			-0.001842 -0.028023 0.022256
			-0.015364 -0.003809 0.031204
			-0.020050 -0.008844 0.025999
			-0.022718 -0.017052 0.020777
			-0.022610 -0.025046 0.016732
			-0.010396 -0.005939 0.035853
			-0.019264 -0.033184 0.010432
			-0.016098 -0.035639 0.008455
			-0.005778 -0.010334 0.037976
			-0.003372 -0.016472 0.038577
			-0.004919 -0.032025 0.030445
			-0.005053 -0.022463 0.035439
			-0.007399 -0.038989 0.014406
			-0.003230 -0.037946 0.021890
			-0.017844 -0.002509 0.037288
			-0.013003 -0.003920 0.040884
			-0.024405 -0.007025 0.032279
			-0.026010 -0.015071 0.031672
			-0.026409 -0.023602 0.025987
			-0.025696 -0.033027 0.017627
			-0.009268 -0.007522 0.044100
			-0.022606 -0.040066 0.012773
			-0.019533 -0.044448 0.008554
			-0.008270 -0.012586 0.045299
			-0.008744 -0.028440 0.038012
			-0.009287 -0.019408 0.042942
			-0.004492 -0.045394 0.022715
			-0.006346 -0.037534 0.031577
			-0.011676 -0.046123 0.014178
			-0.022412 -0.000586 0.041080
			-0.017821 -0.000865 0.046741
			-0.014336 -0.007116 0.049340
			-0.031379 -0.001667 0.027842
			-0.033662 -0.010885 0.031555
			-0.034083 -0.020288 0.030141
			-0.033931 -0.027359 0.024108
			-0.031357 -0.035113 0.020959
			-0.013479 -0.016586 0.049135
			-0.027317 -0.043109 0.015201
			-0.024854 -0.047499 0.010980
			-0.021551 -0.050377 0.005348
			-0.012377 -0.033175 0.042610
			-0.013915 -0.025991 0.046011
			-0.006266 -0.047537 0.032480
			-0.009424 -0.040207 0.037337
			-0.017659 -0.052402 0.011762
			-0.008265 -0.053581 0.019600
			-0.004095 -0.051286 0.026295
			-0.023740 0.000384 0.045473
			-0.018014 -0.008912 0.051657
			-0.016376 -0.019029 0.050958
			-0.032119 0.001529 0.029764
			-0.037421 -0.002198 0.023082
			-0.039916 -0.016396 0.026062
			-0.039369 -0.027193 0.023696
			-0.037199 -0.037520 0.022675
			-0.032916 -0.045095 0.016555
			-0.015979 -0.036531 0.046554
			-0.016537 -0.028868 0.050963
			-0.030800 -0.050149 0.007004
			-0.026581 -0.053521 0.002629
			-0.021259 -0.055760 0.004959
			-0.005245 -0.053838 0.031664
			-0.009052 -0.049910 0.037810
			-0.012924 -0.043344 0.042932
			-0.003900 -0.056632 0.025601
			-0.019505 -0.056972 0.011795
			-0.013460 -0.058067 0.017289
			-0.008143 -0.058574 0.020285
			-0.028052 -0.001490 0.048048
			-0.036347 0.001131 0.035067
			-0.024427 -0.010699 0.052869
			-0.022733 -0.019954 0.054727
			-0.041865 -0.001061 0.025912
			-0.043917 -0.017302 0.027059
			-0.044773 -0.026708 0.027305
			-0.043330 -0.036133 0.027809
			-0.035194 -0.047147 0.023927
			-0.033398 -0.053610 0.009774
			-0.021027 -0.037972 0.050353
			-0.020976 -0.030100 0.055126
			-0.028844 -0.056835 0.003951
			-0.022697 -0.059496 0.005802
			-0.019863 -0.061094 0.014295
			-0.004832 -0.059920 0.033715
			-0.010456 -0.054441 0.041548
			-0.017348 -0.048723 0.046323
			-0.002734 -0.062742 0.027899
			-0.013328 -0.063738 0.018170
			-0.006061 -0.064376 0.021743
			-0.031359 -0.005983 0.049173
			-0.042318 -0.003633 0.039195
			-0.044736 -0.007215 0.031865
			-0.028315 -0.018084 0.056862
			-0.045874 -0.015310 0.033152
			-0.045827 -0.026177 0.035362
			-0.043495 -0.034851 0.035935
			-0.037758 -0.051667 0.031820
			-0.031350 -0.058757 0.021839
			-0.031609 -0.061844 0.029550
			-0.032779 -0.060415 0.011126
			-0.025990 -0.039424 0.050923
			-0.025380 -0.029380 0.057627
			-0.027785 -0.062049 0.006193
			-0.021322 -0.066033 0.016501
			-0.004911 -0.067201 0.037550
			-0.001979 -0.069216 0.028006
			-0.011869 -0.065462 0.043820
			-0.023213 -0.047836 0.049174
			-0.016912 -0.064307 0.047329
			-0.007202 -0.070301 0.021285
			-0.015179 -0.068743 0.018523
			-0.034347 -0.018831 0.054123
			-0.041933 -0.017200 0.047778
			-0.044674 -0.019199 0.041757
			-0.031864 -0.032225 0.054457
			-0.043518 -0.028578 0.043653
			-0.033450 -0.063076 0.036887
			-0.036326 -0.054934 0.039173
			-0.039866 -0.041693 0.041482
			-0.027746 -0.066002 0.019741
			-0.027801 -0.073187 0.032036
			-0.031776 -0.042835 0.047981
			-0.000047 -0.083414 0.036538
			0.001383 -0.083414 0.029250
			-0.003560 -0.084573 0.023064
			-0.029273 -0.053013 0.046263
			-0.023189 -0.065224 0.047697
			-0.010042 -0.083305 0.044760
			-0.012478 -0.085186 0.022039
			-0.015607 -0.076417 0.021303
			-0.038403 -0.031288 0.050267
			-0.029999 -0.064257 0.042965
			-0.020095 -0.088350 0.028291
			-0.024169 -0.086157 0.042609
			0.001706 -0.114743 0.043533
			0.006896 -0.107347 0.032571
			0.002572 -0.113007 0.022162
			-0.018964 -0.085334 0.047864
			-0.011604 -0.115449 0.047454
			-0.011661 -0.114730 0.026613
			-0.016767 -0.116932 0.042971
			0.008130 -0.145764 0.044426
			0.015196 -0.143353 0.034265
			0.009328 -0.143528 0.020107
			-0.002852 -0.146576 0.025089
			-0.001714 -0.147796 0.045515
			-0.007424 -0.149026 0.038740
			0.015147 -0.178401 0.042752
			0.021022 -0.175554 0.033080
			0.015075 -0.175162 0.018813
			0.002526 -0.175151 0.023502
			-0.000522 -0.177528 0.035025
			0.004403 -0.176914 0.043356
			0.018981 -0.206374 0.040144
			0.024864 -0.204443 0.026781
			0.015469 -0.204587 0.016581
			0.006389 -0.206800 0.021225
			0.004043 -0.208076 0.032673
			0.009027 -0.207960 0.040514
			0.023600 -0.241751 0.035732
			0.028242 -0.239962 0.023456
			0.019800 -0.238952 0.012953
			0.009544 -0.239368 0.016925
			0.007169 -0.242416 0.028543
			0.013661 -0.242579 0.036843
			0.026899 -0.274641 0.030190
			0.030640 -0.273026 0.019693
			0.021956 -0.270831 0.008759
			0.010537 -0.272479 0.013152
			0.008891 -0.275061 0.026234
			0.016112 -0.276413 0.032394
			0.017043 -0.307083 0.028807
			0.024762 -0.306786 0.027678
			0.030691 -0.305174 0.013795
			0.024732 -0.303786 0.004157
			0.015061 -0.303605 0.005908
			0.008327 -0.304867 0.014008
			0.009508 -0.306907 0.024855
			0.015615 -0.340184 0.025849
			0.026566 -0.340585 0.023968
			0.030561 -0.341299 0.010073
			0.023237 -0.338525 -0.002263
			0.013536 -0.337084 -0.000214
			0.008117 -0.337793 0.009553
			0.006910 -0.339171 0.021177
			0.013182 -0.367059 0.025357
			0.027639 -0.369993 0.020196
			0.027718 -0.368313 0.003917
			0.023518 -0.365258 -0.006715
			0.012836 -0.362424 -0.008984
			0.006078 -0.367552 0.007008
			0.004070 -0.366642 0.021237
			-0.000287 -0.379953 0.023606
			0.012508 -0.381437 0.026607
			0.027087 -0.386524 0.022142
			0.027302 -0.384931 0.000931
			0.020256 -0.378024 -0.012526
			0.010533 -0.375358 -0.017261
			0.006204 -0.377939 -0.008459
			0.004288 -0.380700 0.003996
			-0.005933 -0.386908 0.029006
			0.008955 -0.394172 0.032252
			-0.003106 -0.386950 0.015014
			0.020033 -0.397334 0.029659
			0.032535 -0.397236 0.022422
			0.030467 -0.395803 0.009742
			0.028872 -0.395923 -0.000622
			0.025109 -0.391159 -0.011906
			0.019063 -0.388099 -0.019582
			0.005415 -0.387986 -0.032666
			0.009628 -0.382211 -0.022583
			0.002503 -0.386063 -0.012801
			0.001317 -0.387863 0.000864
			-0.012430 -0.391566 0.029443
			-0.012433 -0.390087 0.014682
			-0.000708 -0.398518 0.036684
			0.007428 -0.402182 0.034878
			-0.009237 -0.392127 0.009498
			0.018668 -0.404484 0.030273
			0.032735 -0.405952 0.022492
			0.030155 -0.405345 0.009922
			0.027698 -0.406431 0.000843
			0.030584 -0.405352 -0.006692
			0.023976 -0.399990 -0.016908
			0.017456 -0.394771 -0.026512
			0.015655 -0.402297 -0.029405
			0.010179 -0.397918 -0.036051
			0.001507 -0.394027 -0.036885
			-0.002491 -0.391301 -0.025452
			-0.003691 -0.392524 -0.016050
			-0.004293 -0.394464 -0.001419
			-0.019671 -0.397000 0.027884
			-0.012746 -0.402755 0.035614
			-0.020789 -0.395546 0.022205
			-0.013522 -0.400649 0.006715
			-0.019354 -0.397443 0.012267
			-0.005099 -0.406224 0.037592
			0.004992 -0.408443 0.034837
			-0.004580 -0.400066 -0.001020
			0.014708 -0.411899 0.030510
			0.021857 -0.413354 0.028621
			0.028530 -0.414204 0.023495
			0.027223 -0.413645 0.011636
			0.023057 -0.412977 0.000957
			0.027374 -0.413810 -0.005145
			0.031050 -0.414385 -0.009231
			0.027623 -0.410568 -0.015303
			0.022600 -0.407738 -0.020398
			0.013195 -0.409421 -0.030096
			0.005178 -0.402633 -0.037581
			-0.008858 -0.397554 -0.035627
			-0.017169 -0.394122 -0.027728
			-0.005275 -0.393543 -0.027941
			-0.011957 -0.392955 -0.018615
			-0.010135 -0.398362 -0.012605
			-0.025157 -0.404414 0.023504
			-0.024004 -0.406220 0.030048
			-0.015356 -0.410292 0.031033
			-0.023099 -0.405472 0.014254
			-0.005349 -0.408388 0.006791
			-0.018870 -0.408765 0.009154
			-0.009231 -0.413578 0.032870
			0.000505 -0.416642 0.032571
			-0.003286 -0.408863 -0.008814
			0.001695 -0.410554 -0.001178
			0.014079 -0.417720 0.029266
			0.020530 -0.421304 0.026441
			0.020333 -0.421241 0.015186
			0.016793 -0.417887 0.005193
			0.018396 -0.418868 -0.003281
			0.026711 -0.421107 -0.010728
			0.025221 -0.417231 -0.017896
			0.019467 -0.413299 -0.022086
			0.010657 -0.414317 -0.030485
			0.000541 -0.411863 -0.035792
			-0.009487 -0.409211 -0.036228
			-0.022537 -0.408518 -0.033431
			-0.019507 -0.395822 -0.020750
			-0.018928 -0.403336 -0.012904
			-0.024471 -0.410552 0.019969
			-0.023982 -0.412954 0.028438
			-0.018508 -0.417224 0.032313
			-0.017519 -0.415397 0.012928
			-0.007937 -0.416280 0.008155
			-0.010187 -0.422335 0.032890
			0.003197 -0.423059 0.030599
			-0.020469 -0.409831 -0.014048
			-0.015484 -0.415554 -0.013805
			-0.006842 -0.422000 -0.013314
			0.004847 -0.416357 -0.000425
			0.004732 -0.417706 0.006342
			0.011167 -0.423568 0.026454
			0.011875 -0.424598 0.018430
			0.010714 -0.418415 0.000541
			0.009974 -0.421177 0.009909
			0.011745 -0.421603 -0.004649
			0.016938 -0.425625 -0.012231
			0.019798 -0.425175 -0.021512
			0.014963 -0.418886 -0.025154
			0.007347 -0.420808 -0.029207
			0.001124 -0.417849 -0.033891
			-0.009651 -0.415455 -0.035547
			-0.020125 -0.414476 -0.033463
			-0.024297 -0.403513 -0.020900
			-0.011966 -0.418955 0.013393
			-0.016914 -0.419300 0.019093
			-0.014182 -0.421751 0.025122
			-0.001207 -0.420783 0.011536
			-0.003316 -0.424534 0.023954
			-0.023151 -0.415806 -0.022716
			-0.016720 -0.420793 -0.017869
			-0.006135 -0.426428 -0.015506
			0.003948 -0.421652 -0.006920
			0.003725 -0.424559 0.017854
			0.002089 -0.429172 -0.015131
			0.006628 -0.430363 -0.020626
			0.009510 -0.428067 -0.027484
			-0.006731 -0.425121 -0.033671
			-0.016020 -0.422695 -0.031012
			-0.018128 -0.422181 -0.023861
			-0.007022 -0.422840 0.017653
			-0.011365 -0.426908 -0.020575
			-0.004071 -0.429494 -0.020264
			-0.001081 -0.428210 -0.031011
			-0.010547 -0.427177 -0.026828
		</DataArray>
	</Points>
			<Polys>
				<DataArray type="Int32" Name="connectivity" format="ascii">
					0 1 2 
					3 1 0 
					2 4 0 
					0 5 3 
					0 4 5 
					2 1 6 
					6 1 7 
					7 1 8 
					8 1 9 
					9 1 10 
					10 1 11 
					11 1 3 
					2 12 4 
					2 13 12 
					6 13 2 
					3 14 11 
					3 5 14 
					12 15 4 
					4 16 5 
					4 15 16 
					5 17 14 
					5 16 17 
					6 18 13 
					7 18 6 
					7 19 18 
					8 19 7 
					8 20 19 
					9 20 8 
					9 21 20 
					10 21 9 
					10 22 21 
					10 23 22 
					11 23 10 
					11 14 23 
					12 24 15 
					13 24 12 
					13 25 24 
					13 26 25 
					18 26 13 
					14 27 23 
					14 17 27 
					24 28 15 
					15 29 16 
					15 28 29 
					16 30 17 
					16 29 30 
					17 31 27 
					17 30 31 
					18 32 26 
					19 32 18 
					19 33 32 
					20 33 19 
					20 34 33 
					21 34 20 
					21 35 34 
					22 35 21 
					22 36 35 
					23 36 22 
					23 37 36 
					23 27 37 
					24 38 28 
					25 38 24 
					25 39 38 
					26 39 25 
					26 40 39 
					26 41 40 
					32 41 26 
					27 42 37 
					27 43 42 
					27 31 43 
					44 45 28 
					38 44 28 
					28 45 29 
					29 46 30 
					45 46 29 
					30 47 31 
					46 47 30 
					31 48 43 
					47 48 31 
					32 49 41 
					33 49 32 
					33 50 49 
					34 50 33 
					34 51 50 
					35 51 34 
					35 52 51 
					36 52 35 
					36 53 52 
					37 53 36 
					37 42 53 
					54 44 38 
					39 54 38 
					55 54 39 
					40 55 39 
					56 55 40 
					41 56 40 
					57 56 41 
					49 57 41 
					42 58 53 
					59 58 42 
					43 59 42 
					48 59 43 
					44 60 45 
					61 60 44 
					54 61 44 
					60 62 45 
					45 62 46 
					46 63 47 
					62 63 46 
					47 64 48 
					63 64 47 
					48 65 59 
					64 65 48 
					66 57 49 
					50 66 49 
					67 66 50 
					51 67 50 
					68 67 51 
					52 68 51 
					69 68 52 
					53 69 52 
					58 69 53 
					70 61 54 
					55 70 54 
					71 70 55 
					56 71 55 
					72 71 56 
					57 72 56 
					73 72 57 
					66 73 57 
					58 74 69 
					75 74 58 
					59 75 58 
					65 75 59 
					60 76 62 
					60 77 76 
					61 77 60 
					61 78 77 
					70 78 61 
					62 79 63 
					62 76 79 
					63 80 64 
					63 79 80 
					64 81 65 
					64 80 81 
					65 82 75 
					65 81 82 
					83 73 66 
					67 83 66 
					84 83 67 
					68 84 67 
					85 84 68 
					69 85 68 
					74 85 69 
					70 86 78 
					71 86 70 
					71 87 86 
					72 87 71 
					72 88 87 
					73 88 72 
					73 89 88 
					83 89 73 
					74 90 85 
					74 91 90 
					75 91 74 
					75 82 91 
					92 93 76 
					77 92 76 
					76 93 79 
					94 92 77 
					78 94 77 
					95 94 78 
					86 95 78 
					79 96 80 
					93 96 79 
					80 97 81 
					96 97 80 
					81 98 82 
					97 98 81 
					82 99 91 
					98 99 82 
					83 100 89 
					83 101 100 
					84 101 83 
					84 102 101 
					85 102 84 
					85 90 102 
					87 95 86 
					103 95 87 
					88 103 87 
					104 103 88 
					89 104 88 
					105 104 89 
					100 105 89 
					90 106 102 
					99 106 90 
					91 99 90 
					92 107 93 
					94 107 92 
					107 108 93 
					93 108 96 
					109 107 94 
					95 109 94 
					110 109 95 
					103 110 95 
					96 111 97 
					108 111 96 
					97 112 98 
					111 112 97 
					98 112 99 
					99 113 106 
					112 113 99 
					114 105 100 
					101 114 100 
					115 114 101 
					102 115 101 
					106 115 102 
					116 110 103 
					104 116 103 
					117 116 104 
					105 117 104 
					114 117 105 
					106 118 115 
					113 118 106 
					107 119 108 
					120 119 107 
					109 120 107 
					119 121 108 
					108 121 111 
					122 120 109 
					110 122 109 
					123 122 110 
					116 123 110 
					111 124 112 
					121 124 111 
					112 125 113 
					124 125 112 
					113 126 118 
					125 126 113 
					127 117 114 
					115 127 114 
					118 127 115 
					128 123 116 
					117 128 116 
					129 128 117 
					127 129 117 
					118 130 127 
					126 130 118 
					119 131 121 
					119 132 131 
					120 132 119 
					120 133 132 
					120 134 133 
					122 134 120 
					121 135 124 
					121 131 135 
					122 136 134 
					123 136 122 
					123 137 136 
					128 137 123 
					124 138 125 
					124 135 138 
					125 139 126 
					125 138 139 
					126 140 130 
					126 141 140 
					126 139 141 
					130 129 127 
					128 142 137 
					129 142 128 
					129 143 142 
					130 143 129 
					130 140 143 
					132 144 131 
					131 145 135 
					131 144 145 
					132 146 144 
					133 146 132 
					133 147 146 
					134 147 133 
					134 148 147 
					134 149 148 
					136 149 134 
					135 150 138 
					135 145 150 
					136 151 149 
					137 151 136 
					137 152 151 
					142 152 137 
					138 153 139 
					138 150 153 
					139 154 141 
					139 155 154 
					139 153 155 
					140 156 143 
					140 157 156 
					141 157 140 
					141 154 157 
					142 158 152 
					143 158 142 
					143 156 158 
					146 159 144 
					144 160 145 
					144 159 160 
					145 161 150 
					145 160 161 
					146 162 159 
					146 163 162 
					147 163 146 
					147 164 163 
					148 164 147 
					148 165 164 
					149 165 148 
					149 166 165 
					151 166 149 
					150 167 153 
					150 161 167 
					151 168 166 
					151 169 168 
					152 169 151 
					152 170 169 
					158 170 152 
					153 171 155 
					153 172 171 
					167 172 153 
					154 173 157 
					154 174 173 
					155 174 154 
					155 171 174 
					156 175 158 
					156 176 175 
					157 176 156 
					157 177 176 
					157 173 177 
					158 175 170 
					162 178 159 
					159 178 160 
					160 179 161 
					160 178 179 
					161 180 167 
					161 179 180 
					162 181 178 
					163 182 162 
					162 182 181 
					164 182 163 
					164 183 182 
					165 183 164 
					165 184 183 
					165 185 184 
					166 185 165 
					166 186 185 
					168 186 166 
					167 187 172 
					167 188 187 
					167 180 188 
					168 189 186 
					169 189 168 
					169 190 189 
					170 190 169 
					170 191 190 
					175 191 170 
					171 192 174 
					171 193 192 
					171 194 193 
					172 194 171 
					172 187 194 
					173 195 177 
					174 195 173 
					174 192 195 
					175 196 191 
					176 196 175 
					176 197 196 
					198 197 176 
					177 198 176 
					195 198 177 
					178 199 179 
					200 199 178 
					181 200 178 
					179 201 180 
					199 201 179 
					180 202 188 
					201 202 180 
					203 200 181 
					182 203 181 
					204 203 182 
					183 204 182 
					205 204 183 
					184 205 183 
					206 205 184 
					185 206 184 
					207 206 185 
					186 207 185 
					208 207 186 
					189 208 186 
					187 209 194 
					210 209 187 
					188 210 187 
					202 210 188 
					211 208 189 
					190 211 189 
					212 211 190 
					191 212 190 
					213 212 191 
					196 213 191 
					192 214 195 
					215 214 192 
					193 215 192 
					216 215 193 
					194 216 193 
					209 216 194 
					195 217 198 
					214 217 195 
					218 213 196 
					197 218 196 
					219 218 197 
					198 219 197 
					217 219 198 
					199 220 201 
					221 220 199 
					200 221 199 
					222 221 200 
					203 222 200 
					201 220 202 
					202 223 210 
					220 223 202 
					224 222 203 
					204 224 203 
					225 224 204 
					205 225 204 
					226 225 205 
					206 226 205 
					227 226 206 
					207 227 206 
					207 228 229 
					207 229 227 
					228 207 208 
					228 208 230 
					230 208 211 
					209 231 216 
					232 231 209 
					210 232 209 
					223 232 210 
					230 211 233 
					233 211 212 
					233 212 234 
					234 212 213 
					218 234 213 
					215 235 214 
					214 235 236 
					214 236 217 
					216 237 215 
					215 237 235 
					238 239 216 
					216 239 237 
					231 238 216 
					217 236 240 
					217 240 219 
					219 241 218 
					218 241 234 
					219 240 241 
					220 242 223 
					221 242 220 
					243 242 221 
					222 243 221 
					244 243 222 
					224 244 222 
					223 245 232 
					242 245 223 
					225 244 224 
					246 244 225 
					226 246 225 
					227 246 226 
					227 229 247 
					227 247 248 
					249 246 227 
					248 249 227 
					250 228 230 
					250 251 228 
					228 251 229 
					229 251 247 
					250 230 233 
					231 252 238 
					245 252 231 
					232 245 231 
					250 233 234 
					241 250 234 
					237 253 235 
					235 253 254 
					235 254 236 
					236 254 255 
					236 255 240 
					239 253 237 
					256 257 238 
					238 257 239 
					238 252 256 
					257 258 239 
					239 258 253 
					240 255 259 
					240 259 241 
					259 260 241 
					260 250 241 
					242 261 245 
					243 261 242 
					244 261 243 
					246 261 244 
					245 261 252 
					249 261 246 
					248 247 262 
					247 251 262 
					248 262 256 
					256 249 248 
					252 261 249 
					252 249 256 
					260 251 250 
					263 251 260 
					264 251 263 
					262 251 264 
					258 265 253 
					253 265 266 
					253 266 254 
					254 266 267 
					254 267 255 
					255 267 259 
					256 262 257 
					262 268 257 
					257 268 258 
					268 269 258 
					258 269 265 
					259 267 270 
					259 270 263 
					259 263 260 
					262 264 268 
					263 270 271 
					263 271 264 
					264 271 269 
					264 269 268 
					269 272 265 
					265 272 273 
					265 273 266 
					266 273 274 
					266 274 267 
					267 274 275 
					267 275 270 
					271 276 269 
					269 276 272 
					270 275 277 
					270 277 271 
					271 277 276 
					276 278 272 
					272 278 279 
					272 279 273 
					273 279 280 
					273 280 274 
					274 280 281 
					274 281 275 
					275 281 282 
					275 282 277 
					277 283 276 
					276 283 278 
					277 282 283 
					283 284 278 
					278 284 285 
					278 285 279 
					279 285 286 
					279 286 280 
					280 286 287 
					280 287 281 
					281 287 288 
					281 288 282 
					282 288 289 
					282 289 283 
					283 289 284 
					289 290 284 
					284 290 291 
					284 291 285 
					285 291 292 
					285 292 286 
					286 292 293 
					286 293 287 
					287 293 294 
					287 294 288 
					288 294 295 
					288 295 289 
					289 295 290 
					295 296 290 
					290 296 297 
					290 297 291 
					291 297 298 
					291 298 292 
					292 298 299 
					292 299 293 
					293 299 300 
					293 300 294 
					294 300 301 
					294 301 295 
					295 301 296 
					301 302 296 
					302 303 296 
					296 303 297 
					303 304 297 
					304 305 297 
					297 305 298 
					305 306 298 
					298 306 299 
					306 307 299 
					299 307 300 
					300 308 301 
					307 308 300 
					308 302 301 
					308 309 302 
					302 309 310 
					302 310 303 
					303 310 311 
					303 311 304 
					304 311 312 
					304 312 305 
					305 312 313 
					305 313 306 
					306 313 314 
					306 314 307 
					307 314 315 
					307 315 308 
					308 315 309 
					315 316 309 
					309 316 317 
					309 317 310 
					310 317 318 
					310 318 311 
					311 318 319 
					311 319 312 
					312 319 320 
					312 320 313 
					313 320 321 
					313 321 314 
					314 321 322 
					314 322 315 
					315 322 316 
					322 323 316 
					323 324 316 
					316 324 317 
					324 325 317 
					317 325 318 
					325 326 318 
					326 327 318 
					318 327 319 
					327 328 319 
					319 328 320 
					328 329 320 
					320 329 321 
					329 330 321 
					321 330 322 
					330 323 322 
					331 332 323 
					323 332 324 
					330 333 323 
					333 331 323 
					332 334 324 
					324 334 325 
					334 335 325 
					335 336 325 
					325 336 326 
					336 337 326 
					326 337 327 
					337 338 327 
					327 338 328 
					339 340 328 
					338 339 328 
					340 341 328 
					328 341 329 
					341 342 329 
					329 342 330 
					342 343 330 
					343 333 330 
					331 344 332 
					333 345 331 
					345 344 331 
					344 346 332 
					346 347 332 
					332 347 334 
					343 348 333 
					348 345 333 
					347 349 334 
					334 349 335 
					349 350 335 
					335 350 336 
					350 351 336 
					351 352 336 
					336 352 337 
					352 353 337 
					337 353 338 
					353 354 338 
					338 354 339 
					354 355 339 
					355 340 339 
					355 356 340 
					356 357 340 
					357 358 340 
					340 358 359 
					340 359 341 
					341 359 342 
					359 360 342 
					342 360 343 
					360 361 343 
					361 348 343 
					362 363 344 
					344 363 346 
					345 364 344 
					364 362 344 
					348 365 345 
					365 366 345 
					366 364 345 
					363 367 346 
					346 367 347 
					367 368 347 
					347 368 349 
					361 369 348 
					369 365 348 
					368 370 349 
					370 371 349 
					349 371 350 
					371 372 350 
					350 372 351 
					372 373 351 
					373 374 351 
					351 374 352 
					374 375 352 
					352 375 353 
					375 376 353 
					376 377 353 
					353 377 354 
					377 378 354 
					354 378 355 
					378 356 355 
					378 379 356 
					356 379 380 
					356 380 357 
					357 380 381 
					357 381 358 
					358 381 382 
					358 382 383 
					358 383 359 
					359 383 360 
					383 384 360 
					384 385 360 
					360 385 361 
					385 369 361 
					364 386 362 
					362 386 387 
					362 387 363 
					363 387 388 
					363 388 367 
					366 389 364 
					364 389 386 
					369 390 365 
					365 390 391 
					365 391 366 
					366 391 389 
					367 388 392 
					367 392 368 
					368 392 393 
					368 393 370 
					394 395 369 
					385 394 369 
					369 395 390 
					370 393 396 
					370 396 371 
					371 396 397 
					371 397 372 
					372 397 398 
					372 398 373 
					373 398 399 
					373 399 374 
					400 374 399 
					374 400 401 
					374 401 375 
					375 401 376 
					376 401 402 
					376 402 403 
					376 403 377 
					377 403 379 
					377 379 378 
					403 404 379 
					379 404 405 
					379 405 380 
					380 405 406 
					380 406 381 
					381 406 382 
					382 406 407 
					382 407 408 
					383 382 408 
					383 408 384 
					384 408 409 
					384 409 385 
					385 409 394 
					389 410 386 
					386 410 411 
					386 411 387 
					387 411 388 
					388 411 412 
					388 412 392 
					391 413 389 
					389 413 410 
					395 414 390 
					390 414 391 
					391 414 413 
					392 412 415 
					392 415 393 
					393 415 416 
					393 416 396 
					409 417 394 
					394 417 418 
					394 418 395 
					395 418 419 
					395 419 420 
					395 421 414 
					420 421 395 
					396 416 397 
					397 416 422 
					397 422 398 
					398 422 423 
					398 423 399 
					400 399 424 
					399 423 425 
					399 425 424 
					400 426 427 
					400 427 401 
					424 426 400 
					401 427 428 
					401 428 402 
					402 428 429 
					402 429 403 
					403 429 404 
					429 430 404 
					404 430 431 
					404 431 405 
					405 431 406 
					406 431 432 
					406 432 407 
					407 432 433 
					407 433 434 
					408 407 434 
					408 434 409 
					409 434 417 
					413 435 410 
					410 435 436 
					410 436 411 
					411 436 412 
					412 436 437 
					412 437 415 
					414 435 413 
					421 438 414 
					414 438 435 
					415 437 439 
					415 439 416 
					416 439 422 
					434 440 417 
					417 440 441 
					417 441 418 
					418 441 419 
					419 441 442 
					419 442 443 
					420 419 443 
					420 443 424 
					424 425 420 
					420 425 421 
					425 438 421 
					422 439 444 
					422 444 423 
					423 444 425 
					424 443 426 
					425 444 438 
					426 445 446 
					426 446 427 
					443 445 426 
					427 446 428 
					428 446 447 
					428 447 429 
					429 447 430 
					447 448 430 
					430 448 431 
					431 448 449 
					431 449 432 
					432 449 433 
					433 449 450 
					433 450 440 
					434 433 440 
					438 451 435 
					435 451 436 
					436 451 437 
					437 451 439 
					444 451 438 
					439 451 444 
					440 450 452 
					440 452 441 
					441 452 442 
					442 452 453 
					442 453 445 
					443 442 445 
					445 453 446 
					446 453 454 
					446 454 447 
					447 454 448 
					454 455 448 
					448 455 449 
					449 455 450 
					450 455 452 
					452 455 453 
					453 455 454 
				</DataArray>
				<DataArray type="Int32" Name="offsets" format="ascii">
					3 6 9 12 15 18 21 24 27 30 33 36 39 42 45 48 51 54 57 60 63 66 69 72 75 78 81 84 87 90 93 96 99 102 105 108 111 114 117 120 123 126 129 132 135 138 141 144 147 150 153 156 159 162 165 168 171 174 177 180 183 186 189 192 195 198 201 204 207 210 213 216 219 222 225 228 231 234 237 240 243 246 249 252 255 258 261 264 267 270 273 276 279 282 285 288 291 294 297 300 303 306 309 312 315 318 321 324 327 330 333 336 339 342 345 348 351 354 357 360 363 366 369 372 375 378 381 384 387 390 393 396 399 402 405 408 411 414 417 420 423 426 429 432 435 438 441 444 447 450 453 456 459 462 465 468 471 474 477 480 483 486 489 492 495 498 501 504 507 510 513 516 519 522 525 528 531 534 537 540 543 546 549 552 555 558 561 564 567 570 573 576 579 582 585 588 591 594 597 600 603 606 609 612 615 618 621 624 627 630 633 636 639 642 645 648 651 654 657 660 663 666 669 672 675 678 681 684 687 690 693 696 699 702 705 708 711 714 717 720 723 726 729 732 735 738 741 744 747 750 753 756 759 762 765 768 771 774 777 780 783 786 789 792 795 798 801 804 807 810 813 816 819 822 825 828 831 834 837 840 843 846 849 852 855 858 861 864 867 870 873 876 879 882 885 888 891 894 897 900 903 906 909 912 915 918 921 924 927 930 933 936 939 942 945 948 951 954 957 960 963 966 969 972 975 978 981 984 987 990 993 996 999 1002 1005 1008 1011 1014 1017 1020 1023 1026 1029 1032 1035 1038 1041 1044 1047 1050 1053 1056 1059 1062 1065 1068 1071 1074 1077 1080 1083 1086 1089 1092 1095 1098 1101 1104 1107 1110 1113 1116 1119 1122 1125 1128 1131 1134 1137 1140 1143 1146 1149 1152 1155 1158 1161 1164 1167 1170 1173 1176 1179 1182 1185 1188 1191 1194 1197 1200 1203 1206 1209 1212 1215 1218 1221 1224 1227 1230 1233 1236 1239 1242 1245 1248 1251 1254 1257 1260 1263 1266 1269 1272 1275 1278 1281 1284 1287 1290 1293 1296 1299 1302 1305 1308 1311 1314 1317 1320 1323 1326 1329 1332 1335 1338 1341 1344 1347 1350 1353 1356 1359 1362 1365 1368 1371 1374 1377 1380 1383 1386 1389 1392 1395 1398 1401 1404 1407 1410 1413 1416 1419 1422 1425 1428 1431 1434 1437 1440 1443 1446 1449 1452 1455 1458 1461 1464 1467 1470 1473 1476 1479 1482 1485 1488 1491 1494 1497 1500 1503 1506 1509 1512 1515 1518 1521 1524 1527 1530 1533 1536 1539 1542 1545 1548 1551 1554 1557 1560 1563 1566 1569 1572 1575 1578 1581 1584 1587 1590 1593 1596 1599 1602 1605 1608 1611 1614 1617 1620 1623 1626 1629 1632 1635 1638 1641 1644 1647 1650 1653 1656 1659 1662 1665 1668 1671 1674 1677 1680 1683 1686 1689 1692 1695 1698 1701 1704 1707 1710 1713 1716 1719 1722 1725 1728 1731 1734 1737 1740 1743 1746 1749 1752 1755 1758 1761 1764 1767 1770 1773 1776 1779 1782 1785 1788 1791 1794 1797 1800 1803 1806 1809 1812 1815 1818 1821 1824 1827 1830 1833 1836 1839 1842 1845 1848 1851 1854 1857 1860 1863 1866 1869 1872 1875 1878 1881 1884 1887 1890 1893 1896 1899 1902 1905 1908 1911 1914 1917 1920 1923 1926 1929 1932 1935 1938 1941 1944 1947 1950 1953 1956 1959 1962 1965 1968 1971 1974 1977 1980 1983 1986 1989 1992 1995 1998 2001 2004 2007 2010 2013 2016 2019 2022 2025 2028 2031 2034 2037 2040 2043 2046 2049 2052 2055 2058 2061 2064 2067 2070 2073 2076 2079 2082 2085 2088 2091 2094 2097 2100 2103 2106 2109 2112 2115 2118 2121 2124 2127 2130 2133 2136 2139 2142 2145 2148 2151 2154 2157 2160 2163 2166 2169 2172 2175 2178 2181 2184 2187 2190 2193 2196 2199 2202 2205 2208 2211 2214 2217 2220 2223 2226 2229 2232 2235 2238 2241 2244 2247 2250 2253 2256 2259 2262 2265 2268 2271 2274 2277 2280 2283 2286 2289 2292 2295 2298 2301 2304 2307 2310 2313 2316 2319 2322 2325 2328 2331 2334 2337 2340 2343 2346 2349 2352 2355 2358 2361 2364 2367 2370 2373 2376 2379 2382 2385 2388 2391 2394 2397 2400 2403 2406 2409 2412 2415 2418 2421 2424 2427 2430 2433 2436 2439 2442 2445 2448 2451 2454 2457 2460 2463 2466 2469 2472 2475 2478 2481 2484 2487 2490 2493 2496 2499 2502 2505 2508 2511 2514 2517 2520 2523 2526 2529 2532 2535 2538 2541 2544 2547 2550 2553 2556 2559 2562 2565 2568 2571 2574 2577 2580 2583 2586 2589 2592 2595 2598 2601 2604 2607 2610 2613 2616 2619 2622 2625 2628 2631 2634 2637 2640 2643 2646 2649 2652 2655 2658 2661 2664 2667 2670 2673 2676 2679 2682 2685 2688 2691 2694 2697 2700 2703 2706 2709 2712 2715 2718 2721 2724 
				</DataArray>
			</Polys>
		</Piece>
	</PolyData>
</VTKFile>
