<?xml version="1.0"?>
<VTKFile type="PolyData" version="0.1" byte_order="LittleEndian" compressor="vtkZLibDataCompressor">
	<PolyData>
		<Piece NumberOfPoints="122" NumberOfVerts="0" NumberOfLines="0" NumberOfStrips="0" NumberOfPolys="130">
		<PointData Normals="Normals">
		<DataArray type="Float32" Name="Normals" NumberOfComponents="3" format="ascii">
			0.724880 -0.601210 -0.336295
			0.029946 -0.793602 -0.607700
			0.351334 -0.538043 -0.766208
			0.525079 -0.559910 -0.640930
			0.585096 -0.610292 -0.534047
			0.719955 -0.649294 -0.245116
			0.666324 -0.695661 0.268454
			0.513533 -0.637562 0.574281
			0.354826 -0.858988 0.369105
			-0.029036 -0.985441 -0.167517
			-0.031493 -0.939867 -0.340084
			-0.634345 -0.293063 -0.715347
			-0.219535 -0.188302 -0.957260
			-0.810048 -0.494907 -0.314466
			0.369751 -0.132701 -0.919605
			0.838676 -0.087559 -0.537547
			0.998159 -0.020962 0.056901
			0.711319 0.101592 0.695488
			0.211722 0.024680 0.977018
			-0.296128 -0.387236 0.873131
			-0.720377 -0.611000 0.328230
			-0.488697 -0.147511 -0.859893
			-0.094068 -0.000388 -0.995566
			-0.822437 -0.300199 -0.483196
			0.377688 0.181483 -0.907973
			-0.855898 -0.426693 0.292186
			0.779369 0.287739 -0.556588
			0.957349 0.286701 0.035863
			0.853921 0.248014 0.457502
			0.629520 0.159773 0.760380
			-0.109861 -0.192313 0.975165
			-0.901781 0.205902 -0.379993
			-0.517384 0.114658 -0.848037
			-0.923672 0.354204 0.146183
			0.264617 0.077892 -0.961203
			-0.647260 0.418592 0.637052
			0.699761 0.071954 -0.710744
			-0.274061 0.252512 0.927970
			0.975998 0.064648 -0.207964
			0.965419 0.028983 0.259088
			0.652836 0.025796 0.757060
			-0.974696 0.151816 -0.164067
			-0.415891 0.027067 -0.909012
			-0.514111 0.338574 0.788072
			0.267969 0.006875 -0.963403
			-0.233371 0.476269 0.847766
			0.777555 0.018523 -0.628541
			-0.577579 0.308237 0.755905
			0.997938 0.034503 0.054137
			0.135249 0.042216 0.989912
			0.879342 0.032842 0.475056
			-0.919317 -0.038908 -0.391590
			-0.235123 -0.042168 -0.971051
			-0.678344 0.039534 0.733680
			0.225253 -0.026537 -0.973939
			-0.403286 0.093840 0.910250
			0.847163 -0.006962 -0.531287
			-0.525068 0.059130 0.849003
			0.967520 0.010130 0.252591
			0.370449 0.013505 0.928755
			0.964767 0.010108 0.262909
			-0.981269 -0.029113 -0.190429
			-0.457281 -0.019848 -0.889100
			-0.657297 -0.004998 0.753616
			0.006038 -0.002056 -0.999980
			-0.406210 0.008253 0.913742
			0.515945 0.014749 -0.856495
			-0.279831 -0.004836 0.960037
			0.942485 0.004429 -0.334220
			0.943539 -0.078628 0.321795
			0.880722 -0.040503 -0.471899
			-0.997358 -0.013206 -0.071431
			-0.620139 0.000794 -0.784492
			-0.623122 -0.012059 0.782031
			-0.144838 0.016813 -0.989312
			-0.278997 -0.006526 0.960270
			0.154282 0.025276 -0.987704
			-0.241894 -0.024642 0.969990
			0.561677 -0.018245 -0.827156
			0.866014 -0.368211 0.338290
			0.705358 -0.132300 -0.696395
			-0.993591 0.008541 0.112713
			-0.894324 0.021051 -0.446924
			-0.759278 -0.030981 0.650028
			-0.367453 -0.015090 -0.929920
			-0.300505 -0.040774 0.952908
			0.000848 -0.037873 -0.999283
			-0.206490 -0.036762 0.977758
			0.379102 -0.050747 -0.923963
			0.301518 -0.162308 0.939544
			0.853902 -0.127613 -0.504547
			-0.995989 0.002451 0.089443
			-0.999783 -0.007741 -0.019306
			-0.980817 -0.094936 0.170253
			-0.557654 -0.320812 -0.765573
			-0.482401 -0.156101 0.861930
			0.269473 -0.484246 -0.832401
			0.137527 -0.095611 0.985872
			0.758363 -0.131326 -0.638466
			0.575039 0.228694 0.785512
			0.942471 0.334129 -0.010240
			-0.998819 0.020828 -0.043895
			-0.999580 0.011489 0.026604
			-0.990709 0.050989 -0.126080
			-0.642667 -0.105521 -0.758844
			-0.606661 0.140078 0.782522
			0.489524 -0.182836 -0.852606
			0.531388 0.299114 0.792564
			0.877158 0.202589 -0.435375
			0.798117 0.591496 0.114640
			0.755086 0.606945 -0.247915
			-0.938675 0.314876 -0.140508
			-0.891923 0.436920 0.116516
			-0.787825 0.332942 -0.518152
			-0.483591 0.760336 -0.433624
			-0.604874 0.742420 -0.287993
			-0.006793 0.797443 -0.603357
			0.188171 0.936570 -0.295684
			0.065977 0.807047 -0.586789
			0.152277 0.811770 -0.563774
			0.039550 0.802233 -0.595699
			-0.475233 0.730222 -0.490845
		</DataArray>
	</PointData>
	<Points>
		<DataArray type="Float32" NumberOfComponents="3" format="ascii">
			-0.026304 -0.400747 -0.000276
			-0.029932 -0.407066 -0.004211
			-0.027463 -0.399877 -0.006151
			-0.023693 -0.392631 -0.006107
			-0.020574 -0.392526 -0.003280
			-0.017442 -0.395169 0.001005
			-0.018104 -0.397859 0.007518
			-0.025050 -0.401116 0.006270
			-0.027134 -0.404321 0.001447
			-0.028072 -0.404354 0.000551
			-0.029828 -0.405716 -0.001008
			-0.030600 -0.397634 -0.004046
			-0.028480 -0.391143 -0.009045
			-0.033428 -0.396184 -0.000877
			-0.021516 -0.384512 -0.011555
			-0.015419 -0.384309 -0.006233
			-0.013322 -0.385299 0.001661
			-0.016372 -0.386399 0.009396
			-0.024204 -0.390453 0.010964
			-0.029897 -0.394525 0.007649
			-0.033722 -0.394655 0.004148
			-0.033878 -0.386656 -0.006012
			-0.028752 -0.380218 -0.007702
			-0.038449 -0.387497 -0.000785
			-0.024060 -0.373741 -0.006043
			-0.038761 -0.388206 0.007483
			-0.020446 -0.373623 -0.003043
			-0.020768 -0.370804 0.001513
			-0.023297 -0.368056 0.004260
			-0.024524 -0.377941 0.009969
			-0.032217 -0.387987 0.013294
			-0.032650 -0.369007 -0.003364
			-0.028871 -0.364387 -0.005075
			-0.037942 -0.375103 0.000210
			-0.024997 -0.359729 -0.004198
			-0.039459 -0.381049 0.008438
			-0.021929 -0.359632 -0.001813
			-0.032449 -0.380818 0.014459
			-0.021588 -0.346871 0.002383
			-0.023235 -0.334167 0.005999
			-0.024294 -0.357408 0.011503
			-0.031486 -0.359191 -0.001620
			-0.029082 -0.342698 -0.002377
			-0.034284 -0.368502 0.000900
			-0.026369 -0.326175 -0.001335
			-0.034569 -0.377726 0.005657
			-0.023798 -0.326098 0.000360
			-0.030238 -0.377584 0.009321
			-0.023338 -0.280931 0.005228
			-0.025164 -0.306649 0.011025
			-0.023963 -0.235804 0.010458
			-0.035504 -0.301616 0.000475
			-0.031860 -0.280371 -0.001125
			-0.034561 -0.330059 0.003518
			-0.027631 -0.259085 -0.000037
			-0.031469 -0.358463 0.004739
			-0.023506 -0.258971 0.001844
			-0.028903 -0.358382 0.006720
			-0.023867 -0.199821 0.009175
			-0.026440 -0.249537 0.011303
			-0.025585 -0.140746 0.015124
			-0.037622 -0.236171 0.005086
			-0.034112 -0.208081 0.002967
			-0.034841 -0.264904 0.008132
			-0.029267 -0.179939 0.003515
			-0.030610 -0.293623 0.007577
			-0.024084 -0.179805 0.004810
			-0.028771 -0.293570 0.008600
			-0.022031 -0.143912 0.011228
			-0.025908 -0.200832 0.014455
			-0.022324 -0.108102 0.017300
			-0.038039 -0.187638 0.009140
			-0.034439 -0.159376 0.007120
			-0.035066 -0.192436 0.013711
			-0.029731 -0.131076 0.007857
			-0.030896 -0.197214 0.014285
			-0.025075 -0.130959 0.008474
			-0.028563 -0.197153 0.014968
			-0.020252 -0.106247 0.012146
			-0.023197 -0.139383 0.019922
			-0.016909 -0.081593 0.018810
			-0.036445 -0.138090 0.013673
			-0.033658 -0.110493 0.011907
			-0.033703 -0.135090 0.017885
			-0.029577 -0.082864 0.012287
			-0.030053 -0.132069 0.018800
			-0.025529 -0.082763 0.012369
			-0.027643 -0.132008 0.019126
			-0.017456 -0.076857 0.011697
			-0.019393 -0.101532 0.024384
			-0.009111 -0.070981 0.019199
			-0.033516 -0.105125 0.016666
			-0.033136 -0.086707 0.014137
			-0.032868 -0.102838 0.020283
			-0.030018 -0.068213 0.011859
			-0.030163 -0.100497 0.022972
			-0.024997 -0.068088 0.011792
			-0.026442 -0.100404 0.023200
			-0.017003 -0.063328 0.011980
			-0.018048 -0.079532 0.025890
			-0.009390 -0.058616 0.019532
			-0.030826 -0.069569 0.019490
			-0.034346 -0.067194 0.014727
			-0.035105 -0.063842 0.025808
			-0.031828 -0.064653 0.006932
			-0.031598 -0.057945 0.035863
			-0.023412 -0.064442 0.006750
			-0.021553 -0.057694 0.035489
			-0.017915 -0.058306 0.012931
			-0.016173 -0.054917 0.027648
			-0.017109 -0.052297 0.020106
			-0.031072 -0.056553 0.020496
			-0.032032 -0.054932 0.017198
			-0.030646 -0.049884 0.023769
			-0.029866 -0.053229 0.013214
			-0.028150 -0.043164 0.026581
			-0.025015 -0.053107 0.012980
			-0.024755 -0.043079 0.026339
			-0.022136 -0.050450 0.016772
			-0.022564 -0.045453 0.023801
			-0.022241 -0.047868 0.020629
			-0.027042 -0.051895 0.020648
		</DataArray>
	</Points>
			<Polys>
				<DataArray type="Int32" Name="connectivity" format="ascii">
					0 1 2 
					0 2 3 
					0 3 4 
					0 4 5 
					0 5 6 
					0 6 7 
					0 7 8 
					0 8 9 
					0 9 10 
					0 10 1 
					1 11 12 2 
					10 13 11 1 
					2 12 14 3 
					3 14 15 4 
					4 15 16 5 
					5 16 17 6 
					6 17 18 7 
					7 18 19 8 
					8 19 20 9 
					9 20 13 10 
					11 21 22 12 
					13 23 21 11 
					12 22 24 14 
					20 25 23 13 
					14 24 26 15 
					15 26 27 16 
					16 27 28 17 
					17 28 29 18 
					18 29 30 19 
					19 30 25 20 
					21 31 32 22 
					23 33 31 21 
					22 32 34 24 
					25 35 33 23 
					24 34 36 26 
					30 37 35 25 
					26 36 38 27 
					27 38 39 28 
					28 39 40 29 
					29 40 37 30 
					31 41 42 32 
					33 43 41 31 
					32 42 44 34 
					35 45 43 33 
					34 44 46 36 
					37 47 45 35 
					36 46 48 38 
					40 49 47 37 
					38 48 50 39 
					39 50 49 40 
					41 51 52 42 
					43 53 51 41 
					42 52 54 44 
					45 55 53 43 
					44 54 56 46 
					47 57 55 45 
					46 56 58 48 
					49 59 57 47 
					48 58 60 50 
					50 60 59 49 
					51 61 62 52 
					53 63 61 51 
					52 62 64 54 
					55 65 63 53 
					54 64 66 56 
					57 67 65 55 
					56 66 68 58 
					59 69 67 57 
					58 68 70 60 
					60 70 69 59 
					61 71 72 62 
					63 73 71 61 
					62 72 74 64 
					65 75 73 63 
					64 74 76 66 
					67 77 75 65 
					66 76 78 68 
					69 79 77 67 
					68 78 80 70 
					70 80 79 69 
					71 81 82 72 
					73 83 81 71 
					72 82 84 74 
					75 85 83 73 
					74 84 86 76 
					77 87 85 75 
					76 86 88 78 
					79 89 87 77 
					78 88 90 80 
					80 90 89 79 
					81 91 92 82 
					83 93 91 81 
					82 92 94 84 
					85 95 93 83 
					84 94 96 86 
					87 97 95 85 
					86 96 98 88 
					89 99 97 87 
					88 98 100 90 
					90 100 99 89 
					91 101 102 92 
					93 103 101 91 
					92 102 104 94 
					95 105 103 93 
					94 104 106 96 
					97 107 105 95 
					96 106 108 98 
					99 109 107 97 
					98 108 110 100 
					100 110 109 99 
					101 111 112 102 
					103 113 111 101 
					102 112 114 104 
					105 115 113 103 
					104 114 116 106 
					107 117 115 105 
					106 116 118 108 
					109 119 117 107 
					108 118 120 110 
					110 120 119 109 
					111 121 112 
					113 121 111 
					112 121 114 
					115 121 113 
					114 121 116 
					117 121 115 
					116 121 118 
					119 121 117 
					118 121 120 
					120 121 119 
				</DataArray>
				<DataArray type="Int32" Name="offsets" format="ascii">
					3 6 9 12 15 18 21 24 27 30 34 38 42 46 50 54 58 62 66 70 74 78 82 86 90 94 98 102 106 110 114 118 122 126 130 134 138 142 146 150 154 158 162 166 170 174 178 182 186 190 194 198 202 206 210 214 218 222 226 230 234 238 242 246 250 254 258 262 266 270 274 278 282 286 290 294 298 302 306 310 314 318 322 326 330 334 338 342 346 350 354 358 362 366 370 374 378 382 386 390 394 398 402 406 410 414 418 422 426 430 434 438 442 446 450 454 458 462 466 470 473 476 479 482 485 488 491 494 497 500 
				</DataArray>
			</Polys>
		</Piece>
	</PolyData>
</VTKFile>
