<?xml version="1.0"?>
<VTKFile type="PolyData" version="0.1" byte_order="LittleEndian" compressor="vtkZLibDataCompressor">
	<PolyData>
		<Piece NumberOfPoints="122" NumberOfVerts="0" NumberOfLines="0" NumberOfStrips="0" NumberOfPolys="130">
		<PointData Normals="Normals">
		<DataArray type="Float32" Name="Normals" NumberOfComponents="3" format="ascii">
			-0.069906 -0.601210 -0.796027
			-0.565771 -0.793602 -0.223828
			-0.599614 -0.538043 -0.592430
			-0.406545 -0.559910 -0.721956
			-0.284927 -0.610292 -0.739162
			0.027123 -0.649294 -0.760053
			0.483644 -0.695661 -0.531172
			0.714307 -0.637562 -0.288584
			0.465428 -0.858988 -0.213347
			-0.167729 -0.985441 -0.027781
			-0.331810 -0.939867 -0.080942
			-0.891681 -0.293063 0.344991
			-0.970983 -0.188302 -0.147424
			-0.580133 -0.494907 0.646925
			-0.705555 -0.132701 -0.696118
			-0.171471 -0.087559 -0.981291
			0.435690 -0.020962 -0.899852
			0.913937 0.101592 -0.392934
			0.986147 0.024680 0.164028
			0.709445 -0.387236 0.588843
			0.049161 -0.611000 0.790102
			-0.981097 -0.147511 0.125253
			-0.950710 -0.000388 -0.310082
			-0.758006 -0.300199 0.579057
			-0.668397 0.181483 -0.721325
			-0.050723 -0.426693 0.902973
			-0.181371 0.287739 -0.940378
			0.438721 0.286701 -0.851661
			0.781460 0.248014 -0.572547
			0.950039 0.159773 -0.268137
			0.862167 -0.192313 0.468705
			-0.730337 0.205902 0.651315
			-0.989387 0.114658 0.089256
			-0.247769 0.354204 0.901748
			-0.735748 0.077892 -0.672761
			0.328834 0.418592 0.846551
			-0.314529 0.071954 -0.946517
			0.743273 0.252512 0.619502
			0.296237 0.064648 -0.952924
			0.725588 0.028983 -0.687519
			0.972780 0.025796 -0.230289
			-0.590648 0.151816 0.792519
			-0.995127 0.027067 -0.094817
			0.489802 0.338574 0.803407
			-0.663085 0.006875 -0.748512
			0.680545 0.476269 0.556801
			-0.104818 0.018523 -0.994319
			0.456756 0.308237 0.834484
			0.693520 0.034503 -0.719611
			0.877564 0.042216 0.477598
			0.974290 0.032842 -0.222891
			-0.867880 -0.038908 0.495248
			-0.887636 -0.042168 -0.458612
			0.258693 0.039534 0.965150
			-0.534422 -0.026537 -0.844801
			0.624316 0.093840 0.775515
			0.217913 -0.006962 -0.975943
			0.513869 0.059130 0.855828
			0.937616 0.010130 -0.347524
			0.909257 0.013505 0.416015
			0.986558 0.010108 -0.163094
			-0.862612 -0.029113 0.505027
			-0.895781 -0.019848 -0.444051
			0.091736 -0.004998 0.995771
			-0.517181 -0.002056 -0.855874
			0.460434 0.008253 0.887655
			-0.007007 0.014749 -0.999867
			0.575347 -0.004836 0.817895
			0.710671 0.004429 -0.703511
			0.956768 -0.078628 -0.280025
			0.680154 -0.040503 -0.731949
			-0.876733 -0.013206 0.480796
			-0.915080 0.000794 -0.403272
			-0.084915 -0.012059 0.996315
			-0.518959 0.016813 -0.854634
			0.314181 -0.006526 0.949341
			-0.242518 0.025276 -0.969818
			0.350087 -0.024642 0.936393
			0.268624 -0.018245 -0.963073
			0.928421 -0.368211 -0.049550
			0.511809 -0.132300 -0.848851
			-0.860375 0.008541 0.509589
			-0.991858 0.021051 -0.125592
			-0.434896 -0.030981 0.899947
			-0.588599 -0.015090 -0.808285
			0.097659 -0.040774 0.994384
			-0.249101 -0.037873 -0.967737
			0.193700 -0.036762 0.980372
			0.153794 -0.050747 -0.986799
			0.573851 -0.162308 0.802715
			0.725383 -0.127613 -0.676414
			-0.916860 0.002451 0.399204
			-0.969981 -0.007741 0.243057
			-0.880228 -0.094936 0.464958
			-0.703946 -0.320812 -0.633672
			-0.199419 -0.156101 0.967402
			0.091803 -0.484246 -0.870103
			0.428728 -0.095611 0.898360
			0.621495 -0.131326 -0.772333
			0.747099 0.228694 0.624133
			0.925584 0.334129 -0.177909
			-0.985612 0.020828 0.167734
			-0.973181 0.011489 0.229755
			-0.996363 0.050989 0.068270
			-0.779056 -0.105521 -0.618011
			-0.459413 0.140078 0.877107
			0.313338 -0.182836 -0.931875
			0.662100 0.299114 0.687135
			0.786161 0.202589 -0.583874
			0.806054 0.591496 -0.020214
			0.706042 0.606945 -0.364858
			-0.948857 0.314876 0.022916
			-0.859941 0.436920 0.263826
			-0.857340 0.332942 -0.392578
			-0.547402 0.760336 -0.349630
			-0.637484 0.742420 -0.205979
			-0.104144 0.797443 -0.594340
			0.147752 0.936570 -0.317816
			-0.024866 0.807047 -0.589963
			0.072796 0.811770 -0.579422
			-0.047656 0.802233 -0.595105
			-0.546751 0.730222 -0.409680
		</DataArray>
	</PointData>
	<Points>
		<DataArray type="Float32" NumberOfComponents="3" format="ascii">
			-0.009199 -0.400747 0.024644
			-0.013615 -0.407066 0.026987
			-0.015182 -0.399877 0.023697
			-0.014293 -0.392631 0.019858
			-0.010532 -0.392526 0.017976
			-0.005267 -0.395169 0.016658
			0.000744 -0.397859 0.019588
			-0.002589 -0.401116 0.025693
			-0.007577 -0.404321 0.026095
			-0.008729 -0.404354 0.026685
			-0.010664 -0.405716 0.027875
			-0.014465 -0.397634 0.027267
			-0.018873 -0.391143 0.023167
			-0.012619 -0.396184 0.030967
			-0.018966 -0.384512 0.015387
			-0.011710 -0.384309 0.011810
			-0.003580 -0.385299 0.012939
			0.002454 -0.386399 0.018717
			0.001251 -0.390453 0.026542
			-0.003551 -0.394525 0.030655
			-0.008175 -0.394655 0.032978
			-0.018435 -0.386656 0.029052
			-0.018513 -0.380218 0.023308
			-0.015247 -0.387497 0.035306
			-0.015508 -0.373741 0.019362
			-0.007626 -0.388206 0.038734
			-0.011283 -0.373623 0.017320
			-0.007443 -0.370804 0.019447
			-0.006221 -0.368056 0.022852
			-0.000803 -0.377941 0.026460
			0.000195 -0.387987 0.034852
			-0.017055 -0.369007 0.028044
			-0.017314 -0.364387 0.023654
			-0.015457 -0.375103 0.034651
			-0.015106 -0.359729 0.020354
			-0.007869 -0.381049 0.039576
			-0.011592 -0.359632 0.018702
			0.000409 -0.380818 0.035522
			-0.008486 -0.346871 0.019993
			-0.007034 -0.334167 0.022943
			-0.000992 -0.357408 0.026862
			-0.015805 -0.359191 0.027280
			-0.016611 -0.342698 0.023989
			-0.013954 -0.368502 0.031329
			-0.015451 -0.326175 0.021409
			-0.008832 -0.377726 0.033897
			-0.012635 -0.326098 0.020170
			-0.003741 -0.377584 0.031420
			-0.011305 -0.280931 0.021076
			-0.006029 -0.306649 0.026804
			-0.011114 -0.235804 0.023665
			-0.021096 -0.301616 0.028561
			-0.021725 -0.280371 0.023332
			-0.015462 -0.330059 0.031109
			-0.019448 -0.259085 0.019628
			-0.010206 -0.358463 0.030143
			-0.015217 -0.258971 0.018011
			-0.007277 -0.358382 0.028768
			-0.014299 -0.199821 0.021197
			-0.011321 -0.249537 0.026433
			-0.016954 -0.140746 0.024411
			-0.024892 -0.236171 0.028664
			-0.025690 -0.208081 0.022638
			-0.018160 -0.264904 0.030826
			-0.023121 -0.179939 0.018285
			-0.013184 -0.293623 0.028645
			-0.018032 -0.179805 0.016675
			-0.011241 -0.293570 0.027845
			-0.015159 -0.143912 0.019535
			-0.012864 -0.200832 0.026734
			-0.015509 -0.108102 0.023603
			-0.027005 -0.187638 0.028306
			-0.027108 -0.159376 0.022404
			-0.021578 -0.192436 0.030854
			-0.024318 -0.131076 0.018823
			-0.017365 -0.197214 0.029276
			-0.019795 -0.130959 0.017570
			-0.015061 -0.197153 0.028514
			-0.015322 -0.106247 0.017969
			-0.012900 -0.139383 0.027723
			-0.011748 -0.081593 0.022400
			-0.027654 -0.138090 0.027394
			-0.027817 -0.110493 0.022380
			-0.023703 -0.135090 0.029899
			-0.025558 -0.082864 0.019301
			-0.020261 -0.132069 0.029088
			-0.021624 -0.082763 0.018361
			-0.017922 -0.132008 0.028438
			-0.014257 -0.076857 0.015436
			-0.011027 -0.101532 0.029139
			-0.004768 -0.070981 0.020710
			-0.026544 -0.105125 0.026392
			-0.028280 -0.086707 0.022318
			-0.024994 -0.102838 0.029445
			-0.026916 -0.068213 0.017811
			-0.021812 -0.100497 0.031012
			-0.022024 -0.068088 0.016699
			-0.018205 -0.100404 0.030100
			-0.014383 -0.063328 0.015025
			-0.011291 -0.079532 0.029471
			-0.005761 -0.058616 0.020892
			-0.026023 -0.069569 0.025552
			-0.030624 -0.067194 0.021417
			-0.029439 -0.063842 0.032121
			-0.029849 -0.064653 0.013042
			-0.024790 -0.057945 0.040866
			-0.021640 -0.064442 0.011198
			-0.014997 -0.057694 0.038718
			-0.015341 -0.058306 0.015900
			-0.011330 -0.054917 0.029960
			-0.013693 -0.052297 0.022571
			-0.027087 -0.056553 0.025531
			-0.028710 -0.054932 0.022306
			-0.026683 -0.049884 0.028144
			-0.027334 -0.053229 0.017874
			-0.024412 -0.043164 0.030051
			-0.022590 -0.053107 0.016850
			-0.021086 -0.043079 0.029360
			-0.019299 -0.050450 0.019971
			-0.019053 -0.045453 0.026694
			-0.018998 -0.047868 0.023649
			-0.023443 -0.051895 0.024657
		</DataArray>
	</Points>
			<Polys>
				<DataArray type="Int32" Name="connectivity" format="ascii">
					0 1 2 
					0 2 3 
					0 3 4 
					0 4 5 
					0 5 6 
					0 6 7 
					0 7 8 
					0 8 9 
					0 9 10 
					0 10 1 
					1 11 12 2 
					10 13 11 1 
					2 12 14 3 
					3 14 15 4 
					4 15 16 5 
					5 16 17 6 
					6 17 18 7 
					7 18 19 8 
					8 19 20 9 
					9 20 13 10 
					11 21 22 12 
					13 23 21 11 
					12 22 24 14 
					20 25 23 13 
					14 24 26 15 
					15 26 27 16 
					16 27 28 17 
					17 28 29 18 
					18 29 30 19 
					19 30 25 20 
					21 31 32 22 
					23 33 31 21 
					22 32 34 24 
					25 35 33 23 
					24 34 36 26 
					30 37 35 25 
					26 36 38 27 
					27 38 39 28 
					28 39 40 29 
					29 40 37 30 
					31 41 42 32 
					33 43 41 31 
					32 42 44 34 
					35 45 43 33 
					34 44 46 36 
					37 47 45 35 
					36 46 48 38 
					40 49 47 37 
					38 48 50 39 
					39 50 49 40 
					41 51 52 42 
					43 53 51 41 
					42 52 54 44 
					45 55 53 43 
					44 54 56 46 
					47 57 55 45 
					46 56 58 48 
					49 59 57 47 
					48 58 60 50 
					50 60 59 49 
					51 61 62 52 
					53 63 61 51 
					52 62 64 54 
					55 65 63 53 
					54 64 66 56 
					57 67 65 55 
					56 66 68 58 
					59 69 67 57 
					58 68 70 60 
					60 70 69 59 
					61 71 72 62 
					63 73 71 61 
					62 72 74 64 
					65 75 73 63 
					64 74 76 66 
					67 77 75 65 
					66 76 78 68 
					69 79 77 67 
					68 78 80 70 
					70 80 79 69 
					71 81 82 72 
					73 83 81 71 
					72 82 84 74 
					75 85 83 73 
					74 84 86 76 
					77 87 85 75 
					76 86 88 78 
					79 89 87 77 
					78 88 90 80 
					80 90 89 79 
					81 91 92 82 
					83 93 91 81 
					82 92 94 84 
					85 95 93 83 
					84 94 96 86 
					87 97 95 85 
					86 96 98 88 
					89 99 97 87 
					88 98 100 90 
					90 100 99 89 
					91 101 102 92 
					93 103 101 91 
					92 102 104 94 
					95 105 103 93 
					94 104 106 96 
					97 107 105 95 
					96 106 108 98 
					99 109 107 97 
					98 108 110 100 
					100 110 109 99 
					101 111 112 102 
					103 113 111 101 
					102 112 114 104 
					105 115 113 103 
					104 114 116 106 
					107 117 115 105 
					106 116 118 108 
					109 119 117 107 
					108 118 120 110 
					110 120 119 109 
					111 121 112 
					113 121 111 
					112 121 114 
					115 121 113 
					114 121 116 
					117 121 115 
					116 121 118 
					119 121 117 
					118 121 120 
					120 121 119 
				</DataArray>
				<DataArray type="Int32" Name="offsets" format="ascii">
					3 6 9 12 15 18 21 24 27 30 34 38 42 46 50 54 58 62 66 70 74 78 82 86 90 94 98 102 106 110 114 118 122 126 130 134 138 142 146 150 154 158 162 166 170 174 178 182 186 190 194 198 202 206 210 214 218 222 226 230 234 238 242 246 250 254 258 262 266 270 274 278 282 286 290 294 298 302 306 310 314 318 322 326 330 334 338 342 346 350 354 358 362 366 370 374 378 382 386 390 394 398 402 406 410 414 418 422 426 430 434 438 442 446 450 454 458 462 466 470 473 476 479 482 485 488 491 494 497 500 
				</DataArray>
			</Polys>
		</Piece>
	</PolyData>
</VTKFile>
