<?xml version="1.0"?>
<VTKFile type="PolyData" version="0.1" byte_order="LittleEndian" compressor="vtkZLibDataCompressor">
	<PolyData>
		<Piece NumberOfPoints="186" NumberOfVerts="0" NumberOfLines="0" NumberOfStrips="0" NumberOfPolys="390">
		<PointData Normals="Normals">
		<DataArray type="Float32" Name="Normals" NumberOfComponents="3" format="ascii">
			0.903643 0.424256 0.058614
			-0.783534 -0.551951 0.285350
			0.729006 0.262135 0.632325
			0.734225 -0.315155 0.601324
			0.968012 0.234638 -0.088862
			0.558939 0.404490 -0.723861
			0.943559 0.171035 -0.283625
			0.736339 0.026061 0.676111
			-0.944512 0.159050 0.287403
			-0.910307 0.150068 0.385774
			-0.797814 -0.536988 -0.274112
			-0.012492 -0.971058 0.238515
			-0.551709 -0.044197 0.832865
			-0.528547 0.280721 0.801145
			-0.022348 -0.947872 0.317867
			-0.163502 -0.822655 -0.544522
			-0.135096 -0.987776 0.077760
			0.729705 -0.407831 0.548822
			0.412146 0.093940 0.906262
			0.270922 -0.898606 0.345120
			0.541543 -0.561028 0.626082
			0.996498 0.001541 -0.083606
			0.555288 0.500367 -0.664295
			0.020457 0.404950 -0.914110
			0.510413 0.217174 -0.832054
			0.858072 0.080102 -0.507244
			0.937882 -0.041926 0.344412
			0.201163 0.041967 0.978658
			-0.881106 0.380616 -0.280686
			-0.991090 0.130371 0.027256
			-0.734136 0.119440 0.668415
			-0.696719 0.427493 -0.576049
			-0.467403 -0.416961 -0.779538
			-0.208961 -0.937148 -0.279443
			0.090693 -0.995319 0.033378
			0.453670 -0.173952 0.874028
			0.248526 -0.957418 0.146920
			-0.252888 -0.941577 0.222442
			0.194210 -0.605932 0.771445
			0.793541 -0.528696 -0.301286
			0.602324 0.175297 -0.778766
			0.117259 0.436293 -0.892131
			-0.460686 0.186573 -0.867731
			-0.746494 0.212698 -0.630480
			-0.246951 0.213650 -0.945182
			0.471974 0.108335 -0.874930
			0.654067 0.025694 -0.756001
			0.900726 -0.001640 -0.434385
			0.107743 -0.080146 0.990943
			0.892779 -0.099313 0.439412
			-0.635962 0.387427 -0.667422
			-0.891962 0.177906 -0.415637
			-0.839874 0.039723 0.541326
			-0.982352 0.077347 -0.170299
			-0.523246 -0.681254 -0.511964
			-0.590834 -0.770110 0.240510
			0.055891 -0.991661 -0.116124
			0.648914 -0.374414 -0.662363
			0.034434 0.143832 -0.989003
			-0.598871 0.122177 -0.791471
			-0.289547 0.081751 -0.953666
			-0.085345 0.025073 -0.996036
			0.702189 -0.024954 -0.711553
			0.942913 -0.041296 -0.330467
			-0.173031 -0.047703 0.983761
			0.618441 -0.062967 0.783305
			-0.858558 0.033773 0.511603
			-0.984029 0.066620 -0.165071
			-0.421277 -0.547746 -0.722842
			0.066606 -0.632505 -0.771688
			-0.950336 0.035811 -0.309157
			0.021233 -0.016408 -0.999640
			-0.788450 -0.002126 -0.615095
			0.711667 -0.045938 -0.701014
			0.941698 -0.045969 -0.333303
			-0.369507 -0.010357 0.929170
			0.886453 -0.038981 0.461173
			-0.189207 0.003607 0.981931
			-0.844602 0.014959 0.535187
			-0.972703 0.007217 0.231940
			0.370742 -0.026410 -0.928361
			-0.430987 -0.023643 -0.902049
			-0.944266 -0.030811 -0.327738
			0.797144 -0.012150 -0.603666
			0.930389 -0.018550 -0.366105
			-0.566341 0.030765 0.823597
			0.676574 -0.014302 0.736235
			-0.369897 0.025391 0.928725
			-0.832004 0.008119 0.554711
			0.607636 -0.008249 -0.794172
			-0.195416 -0.064341 -0.978607
			-0.906989 -0.075462 -0.414337
			-0.887100 -0.097891 0.451077
			0.789644 -0.012909 -0.613430
			0.984854 -0.015234 -0.172717
			0.371911 -0.022218 0.928002
			-0.332649 -0.069547 0.940482
			0.606361 -0.071961 -0.791926
			-0.141416 -0.162085 -0.976591
			-0.907122 -0.155929 -0.390915
			-0.975461 -0.077320 0.206146
			-0.690193 -0.149260 0.708064
			0.862066 -0.112309 -0.494195
			0.673673 -0.149572 0.723735
			-0.039933 -0.134227 0.990145
			0.048248 -0.207625 -0.977018
			0.590618 -0.157613 -0.791410
			0.624230 -0.136801 -0.769170
			-0.814195 -0.524484 -0.249004
			-0.976105 -0.140082 0.166118
			-0.873082 -0.367790 0.320091
			-0.432405 -0.396826 0.809664
			0.995438 -0.093774 -0.017615
			0.714435 -0.126214 -0.688224
			0.027126 -0.220755 0.974952
			0.185223 -0.226705 0.956189
			0.667178 -0.110897 0.736597
			-0.013684 -0.368505 0.929525
			0.169183 -0.446627 -0.878579
			0.630962 -0.134082 -0.764140
			0.764717 -0.065970 -0.640980
			-0.759435 -0.633756 0.147005
			-0.916153 -0.399191 -0.036192
			-0.805280 -0.588297 -0.073688
			-0.758587 -0.561621 -0.330344
			-0.373250 -0.566214 -0.734906
			-0.641492 -0.737086 0.212585
			-0.382223 -0.658987 0.647798
			0.788963 -0.028892 0.613761
			0.974250 0.220410 0.047497
			0.610656 -0.146906 0.778150
			0.346601 -0.131468 0.928754
			0.504585 -0.361183 -0.784182
			0.427754 0.895529 -0.122695
			0.182904 0.982976 -0.017475
			0.838304 -0.137767 -0.527511
			0.971586 0.216963 -0.094592
			-0.882915 0.466301 -0.054993
			-0.872324 0.472484 -0.125731
			-0.928830 0.369909 -0.021033
			-0.778614 -0.536622 0.325264
			-0.889000 0.395563 -0.230670
			-0.938443 0.274205 0.210086
			-0.875088 0.478511 -0.072446
			-0.665666 0.152032 -0.730599
			-0.789795 0.437150 -0.430262
			0.163732 0.318095 -0.933814
			-0.278351 0.686836 -0.671399
			-0.540607 -0.042437 0.840205
			0.080073 0.522362 0.848956
			0.902074 0.266221 0.339688
			0.890484 0.314736 0.328602
			0.575885 0.731675 0.364702
			0.744941 0.014430 -0.666975
			0.087965 0.935273 0.342822
			0.022577 0.999712 0.008094
			0.064421 0.982768 0.173257
			0.385755 0.921402 0.047021
			0.204515 0.978525 0.025752
			0.382532 0.917921 0.105314
			0.224824 0.972770 -0.056331
			0.745363 0.654312 -0.127709
			-0.417548 0.897046 0.144782
			-0.635697 0.770509 0.046974
			-0.855546 0.433153 0.283584
			-0.782898 -0.163229 0.600355
			-0.536102 0.804931 -0.254324
			-0.850832 0.205279 -0.483679
			-0.461273 0.787885 0.408000
			-0.299792 0.954002 -0.002195
			-0.159999 0.960609 -0.227223
			-0.261880 0.905418 -0.334121
			0.263668 0.805876 -0.530135
			-0.538900 0.686210 0.488573
			-0.228378 0.878784 0.419026
			0.133853 0.929204 0.344476
			0.697513 0.701193 0.147661
			0.256235 0.963302 -0.079952
			0.286080 0.876784 -0.386533
			0.097849 0.992142 -0.077975
			-0.054918 0.977454 -0.203883
			0.181844 0.965243 0.187719
			-0.182348 0.971681 0.150284
			0.042961 0.998706 -0.027216
			0.123008 0.966093 -0.227011
			0.313796 0.935014 -0.165169
		</DataArray>
	</PointData>
	<Points>
		<DataArray type="Float32" NumberOfComponents="3" format="ascii">
			0.015878 -0.361501 -0.004669
			-0.015790 -0.378615 0.005141
			0.009316 -0.363436 0.006117
			0.015906 -0.374283 0.000443
			0.018714 -0.372391 -0.010265
			0.005742 -0.360418 -0.015320
			0.012481 -0.347739 -0.003031
			0.008747 -0.347760 0.006871
			-0.012636 -0.360930 0.005651
			-0.024687 -0.371674 -0.002953
			-0.023961 -0.382030 -0.008882
			-0.011876 -0.380779 -0.001560
			-0.013278 -0.374491 0.018931
			-0.011626 -0.361650 0.013700
			-0.008117 -0.383591 0.017438
			-0.010954 -0.379841 0.009688
			-0.001910 -0.381091 -0.002235
			0.008071 -0.377819 0.006803
			-0.001174 -0.361470 0.012914
			0.008933 -0.382844 -0.004177
			0.015080 -0.383661 -0.008859
			0.021195 -0.381353 -0.016080
			0.012207 -0.371453 -0.019190
			-0.002161 -0.358241 -0.016288
			0.004357 -0.346804 -0.011121
			0.009734 -0.310616 0.001610
			0.010904 -0.311245 0.006939
			-0.001880 -0.348052 0.012215
			-0.013617 -0.359259 -0.003442
			-0.010845 -0.346808 0.002590
			-0.009256 -0.347149 0.010454
			-0.024981 -0.375295 -0.007488
			-0.013986 -0.382377 -0.017107
			-0.019439 -0.383380 -0.012372
			-0.007282 -0.382237 -0.009508
			-0.003129 -0.377988 0.018070
			0.003374 -0.384506 0.004892
			0.005037 -0.380338 -0.009874
			0.015048 -0.391664 -0.010787
			0.018441 -0.388819 -0.017342
			0.014097 -0.380620 -0.022607
			0.002555 -0.368215 -0.023155
			-0.009703 -0.370062 -0.017579
			-0.009872 -0.358486 -0.010001
			-0.002862 -0.346820 -0.013289
			0.003971 -0.309802 -0.005048
			0.005852 -0.271875 -0.000522
			0.010743 -0.272811 0.006665
			0.002001 -0.309975 0.014016
			0.013483 -0.273492 0.014079
			-0.017228 -0.370421 -0.012753
			-0.009743 -0.346302 -0.005067
			-0.008359 -0.310279 0.010183
			-0.007526 -0.310454 0.001200
			-0.006947 -0.381415 -0.020617
			0.004450 -0.389712 -0.018209
			0.009286 -0.393971 -0.015946
			0.016094 -0.389673 -0.020822
			0.006073 -0.378822 -0.026342
			-0.003704 -0.309708 -0.007175
			-0.001681 -0.272642 -0.003891
			0.002646 -0.234927 -0.002857
			0.009092 -0.235310 0.001898
			0.014485 -0.235724 0.010276
			0.005089 -0.273405 0.016781
			0.014251 -0.236235 0.018597
			-0.005402 -0.277144 0.010000
			-0.006130 -0.274020 0.003767
			-0.000693 -0.386008 -0.024745
			0.011846 -0.389067 -0.024707
			-0.003016 -0.234240 0.002852
			0.003843 -0.201111 -0.002250
			-0.002132 -0.201309 0.002100
			0.011830 -0.200371 0.001483
			0.016585 -0.201650 0.009341
			0.005531 -0.237066 0.017411
			0.018191 -0.202025 0.017795
			0.008720 -0.201693 0.017695
			-0.001323 -0.235506 0.013578
			-0.003226 -0.201942 0.010718
			0.009152 -0.162860 -0.003056
			0.001563 -0.163112 -0.001743
			-0.002335 -0.161544 0.000568
			0.013700 -0.163501 0.001926
			0.017450 -0.163802 0.007645
			0.000126 -0.201444 0.013974
			0.018862 -0.164268 0.018110
			0.007149 -0.162391 0.016053
			-0.002593 -0.162442 0.007245
			0.010591 -0.127426 -0.002079
			0.005244 -0.128390 -0.004987
			-0.004847 -0.126103 0.002091
			-0.003544 -0.126255 0.009525
			0.015541 -0.127031 0.003896
			0.021062 -0.127245 0.011606
			0.020370 -0.126254 0.016320
			0.007476 -0.125652 0.015328
			0.009730 -0.086546 -0.004540
			-0.000492 -0.087399 -0.007982
			-0.007465 -0.087060 -0.002039
			-0.007216 -0.087861 0.008724
			-0.003972 -0.087303 0.016500
			0.020583 -0.086484 0.006903
			0.020359 -0.087027 0.017448
			0.005343 -0.087075 0.018340
			-0.000567 -0.072884 -0.011506
			0.011141 -0.060527 -0.006167
			0.015463 -0.072087 0.000699
			-0.012624 -0.059754 -0.006296
			-0.008833 -0.072367 0.005663
			-0.009991 -0.058651 0.016947
			-0.005516 -0.058263 0.021467
			0.026952 -0.066578 0.010449
			0.023707 -0.069170 0.004773
			0.011975 -0.076048 0.019204
			0.014771 -0.068571 0.021437
			0.022620 -0.068999 0.018332
			0.009074 -0.055770 0.024463
			-0.001527 -0.062354 -0.014099
			0.009148 -0.050922 -0.010024
			0.020703 -0.058850 0.000700
			-0.017848 -0.046399 0.011231
			-0.025700 -0.039599 0.011036
			-0.023952 -0.047352 -0.007857
			-0.021794 -0.047520 -0.014761
			-0.014273 -0.049644 -0.022914
			-0.016321 -0.047665 0.019356
			-0.013163 -0.045080 0.029615
			0.023888 -0.059978 0.018321
			0.026646 -0.055113 0.012446
			0.018722 -0.052754 0.025580
			0.008441 -0.036497 0.036196
			-0.004310 -0.048463 -0.024884
			-0.006134 -0.020983 0.007434
			0.003170 -0.022903 0.013435
			0.018986 -0.041654 -0.005433
			0.021525 -0.045672 0.004347
			-0.026546 -0.029804 0.012858
			-0.024849 -0.026755 0.008845
			-0.028005 -0.031321 0.019993
			-0.027029 -0.042262 0.024137
			-0.022341 -0.028325 0.002550
			-0.029620 -0.039725 -0.002364
			-0.029378 -0.031001 -0.016504
			-0.023352 -0.032661 -0.028166
			-0.028570 -0.032299 -0.022193
			-0.003849 -0.027221 -0.030764
			-0.016374 -0.031483 -0.031117
			-0.017190 -0.036723 0.036341
			-0.001861 -0.028391 0.038189
			0.020914 -0.050659 0.019823
			0.017002 -0.031780 0.026087
			0.011353 -0.024951 0.028638
			0.012248 -0.033646 -0.017730
			-0.000801 -0.022569 0.000840
			-0.004197 -0.023207 0.020177
			-0.011343 -0.017999 0.005963
			-0.006777 -0.021303 -0.000341
			0.010894 -0.021791 -0.003764
			0.014745 -0.025327 0.009709
			0.007497 -0.023806 0.020304
			0.017132 -0.023963 -0.004905
			-0.016439 -0.025531 0.020884
			-0.019742 -0.021936 0.006799
			-0.026559 -0.030119 0.026789
			-0.023031 -0.035128 0.032687
			-0.016685 -0.026964 -0.010169
			-0.018305 -0.021573 -0.002878
			-0.026501 -0.032244 -0.008392
			-0.024026 -0.029841 -0.012473
			-0.017362 -0.029831 -0.016546
			-0.006830 -0.028057 -0.017054
			0.001746 -0.025650 -0.025359
			-0.020901 -0.027247 0.034056
			-0.008531 -0.022541 0.034240
			-0.001482 -0.020941 0.032406
			0.015192 -0.026898 0.016603
			0.006745 -0.022269 0.026030
			0.007696 -0.023226 -0.018923
			-0.003900 -0.018622 -0.006056
			-0.012631 -0.018280 -0.004332
			0.003030 -0.021066 -0.005012
			-0.011195 -0.024319 0.020932
			-0.012018 -0.017938 0.001679
			0.005324 -0.021305 -0.012210
			0.010949 -0.023133 -0.008987
		</DataArray>
	</Points>
			<Polys>
				<DataArray type="Int32" Name="connectivity" format="ascii">
					0 1 2 
					3 0 2 
					3 4 0 
					0 4 5 
					6 0 5 
					7 0 6 
					7 2 0 
					8 9 1 
					1 10 11 
					1 9 10 
					1 12 13 
					1 14 12 
					14 1 15 
					16 15 1 
					16 1 11 
					13 8 1 
					3 2 17 
					2 5 17 
					17 5 2 
					2 17 15 
					2 18 17 
					7 18 2 
					3 19 20 
					3 20 4 
					3 17 19 
					3 16 19 
					4 20 21 
					4 21 22 
					4 22 5 
					5 22 23 
					24 5 23 
					6 5 24 
					25 6 24 
					26 6 25 
					26 7 6 
					27 18 7 
					26 27 7 
					9 8 28 
					8 28 9 
					29 28 8 
					8 13 30 
					29 8 30 
					31 9 28 
					9 31 10 
					10 9 31 
					32 10 31 
					10 32 33 
					10 33 11 
					11 10 33 
					33 34 11 
					16 11 34 
					13 12 35 
					14 35 12 
					18 13 35 
					27 13 18 
					30 13 27 
					17 35 14 
					16 36 14 
					35 14 36 
					14 15 16 
					16 34 37 
					16 37 36 
					19 17 36 
					18 35 17 
					36 17 35 
					19 37 20 
					37 19 36 
					38 21 20 
					20 37 38 
					38 39 21 
					21 39 40 
					21 40 22 
					22 40 41 
					22 41 23 
					42 23 41 
					23 42 43 
					23 42 43 
					24 23 44 
					44 23 43 
					45 24 44 
					25 24 45 
					25 45 46 
					47 25 46 
					26 25 47 
					48 27 26 
					49 26 47 
					48 26 49 
					48 30 27 
					50 31 28 
					28 43 50 
					43 50 28 
					51 28 29 
					51 43 28 
					52 29 30 
					53 29 52 
					53 51 29 
					52 30 48 
					31 50 32 
					31 50 32 
					42 32 50 
					54 34 32 
					42 54 32 
					33 32 34 
					54 37 34 
					37 54 55 
					55 38 37 
					38 55 56 
					56 39 38 
					56 57 39 
					39 57 40 
					40 57 58 
					40 58 41 
					41 58 42 
					43 42 50 
					43 42 50 
					42 58 54 
					44 43 51 
					59 44 51 
					45 44 59 
					45 59 60 
					46 45 60 
					46 60 61 
					62 46 61 
					47 46 62 
					63 47 62 
					49 47 63 
					64 48 49 
					52 48 64 
					65 49 63 
					64 49 65 
					59 51 53 
					66 52 64 
					53 52 66 
					67 53 66 
					59 53 67 
					55 54 68 
					58 68 54 
					56 55 69 
					68 69 55 
					56 69 57 
					57 69 58 
					68 58 69 
					60 59 67 
					60 67 70 
					61 60 70 
					62 61 71 
					61 70 72 
					71 61 72 
					73 62 71 
					63 62 73 
					74 63 73 
					65 63 74 
					75 64 65 
					66 64 75 
					76 65 74 
					77 65 76 
					75 65 77 
					78 66 75 
					67 66 78 
					70 67 78 
					70 78 79 
					72 70 79 
					73 71 80 
					71 72 81 
					80 71 81 
					72 79 82 
					81 72 82 
					83 73 80 
					74 73 83 
					84 74 83 
					76 74 84 
					85 75 77 
					78 75 85 
					86 76 84 
					77 76 86 
					87 77 86 
					85 77 87 
					79 78 85 
					79 85 88 
					82 79 88 
					83 80 89 
					80 81 90 
					89 80 90 
					81 82 91 
					90 81 91 
					82 88 92 
					91 82 92 
					93 83 89 
					84 83 93 
					94 84 93 
					86 84 94 
					88 85 87 
					95 86 94 
					87 86 95 
					96 87 95 
					88 87 96 
					92 88 96 
					93 89 97 
					89 90 98 
					97 89 98 
					90 91 99 
					98 90 99 
					91 92 100 
					99 91 100 
					92 96 101 
					100 92 101 
					102 93 97 
					94 93 102 
					103 94 102 
					95 94 103 
					104 95 103 
					96 95 104 
					101 96 104 
					105 97 98 
					105 106 97 
					107 97 106 
					107 102 97 
					108 98 99 
					105 98 108 
					109 108 99 
					109 99 100 
					109 100 101 
					110 101 111 
					109 101 110 
					111 101 104 
					102 112 103 
					113 112 102 
					107 113 102 
					104 103 114 
					103 115 114 
					112 116 103 
					115 103 116 
					111 104 117 
					117 104 114 
					105 108 118 
					105 118 106 
					119 120 106 
					119 106 118 
					107 106 120 
					107 120 113 
					121 108 110 
					121 122 108 
					122 123 108 
					123 124 108 
					124 125 108 
					125 118 108 
					109 110 108 
					126 110 111 
					121 110 126 
					127 126 111 
					127 111 117 
					116 112 128 
					129 128 112 
					120 112 113 
					120 129 112 
					115 117 114 
					130 115 128 
					130 117 115 
					115 116 128 
					127 117 131 
					131 117 130 
					125 132 118 
					125 132 118 
					119 118 132 
					133 134 119 
					119 132 135 
					119 135 120 
					135 136 120 
					136 129 120 
					122 121 126 
					137 138 122 
					139 137 122 
					140 139 122 
					122 138 141 
					142 122 141 
					142 123 122 
					140 122 126 
					142 143 123 
					143 124 123 
					124 144 125 
					124 145 144 
					143 145 124 
					146 132 125 
					147 146 125 
					144 147 125 
					140 126 127 
					148 127 149 
					148 140 127 
					127 148 149 
					149 127 131 
					148 127 149 
					128 129 150 
					130 128 150 
					129 136 150 
					131 130 151 
					151 130 150 
					131 152 149 
					152 131 151 
					132 146 153 
					135 132 153 
					154 134 133 
					154 133 134 
					154 133 134 
					134 133 155 
					133 156 155 
					133 154 157 
					156 133 157 
					158 154 134 
					159 158 134 
					160 134 155 
					159 134 160 
					161 135 153 
					135 161 136 
					161 151 136 
					136 151 150 
					162 137 139 
					162 138 137 
					162 163 138 
					138 163 141 
					164 139 140 
					162 139 164 
					164 140 165 
					140 148 165 
					166 142 141 
					167 166 141 
					163 167 141 
					142 166 168 
					143 142 168 
					169 143 168 
					143 169 170 
					145 143 170 
					144 145 170 
					147 144 170 
					146 147 171 
					172 146 171 
					146 172 153 
					147 170 171 
					148 173 165 
					149 174 148 
					148 174 173 
					148 173 165 
					152 175 149 
					149 175 174 
					161 176 151 
					152 151 176 
					159 160 152 
					175 152 177 
					152 160 177 
					152 176 159 
					178 161 153 
					172 178 153 
					154 179 180 
					154 180 157 
					154 158 181 
					179 154 181 
					156 182 155 
					177 160 155 
					175 177 155 
					174 175 155 
					182 174 155 
					162 182 156 
					162 156 163 
					183 156 157 
					163 156 183 
					180 183 157 
					161 158 159 
					158 184 181 
					158 161 185 
					184 158 185 
					161 159 176 
					161 178 185 
					162 164 173 
					162 173 174 
					162 174 182 
					163 183 180 
					163 180 167 
					167 180 163 
					167 163 180 
					173 164 165 
					166 167 180 
					166 169 168 
					170 169 166 
					166 180 171 
					170 166 171 
					179 184 171 
					180 179 171 
					178 172 171 
					184 178 171 
					178 184 185 
					184 179 181 
				</DataArray>
				<DataArray type="Int32" Name="offsets" format="ascii">
					3 6 9 12 15 18 21 24 27 30 33 36 39 42 45 48 51 54 57 60 63 66 69 72 75 78 81 84 87 90 93 96 99 102 105 108 111 114 117 120 123 126 129 132 135 138 141 144 147 150 153 156 159 162 165 168 171 174 177 180 183 186 189 192 195 198 201 204 207 210 213 216 219 222 225 228 231 234 237 240 243 246 249 252 255 258 261 264 267 270 273 276 279 282 285 288 291 294 297 300 303 306 309 312 315 318 321 324 327 330 333 336 339 342 345 348 351 354 357 360 363 366 369 372 375 378 381 384 387 390 393 396 399 402 405 408 411 414 417 420 423 426 429 432 435 438 441 444 447 450 453 456 459 462 465 468 471 474 477 480 483 486 489 492 495 498 501 504 507 510 513 516 519 522 525 528 531 534 537 540 543 546 549 552 555 558 561 564 567 570 573 576 579 582 585 588 591 594 597 600 603 606 609 612 615 618 621 624 627 630 633 636 639 642 645 648 651 654 657 660 663 666 669 672 675 678 681 684 687 690 693 696 699 702 705 708 711 714 717 720 723 726 729 732 735 738 741 744 747 750 753 756 759 762 765 768 771 774 777 780 783 786 789 792 795 798 801 804 807 810 813 816 819 822 825 828 831 834 837 840 843 846 849 852 855 858 861 864 867 870 873 876 879 882 885 888 891 894 897 900 903 906 909 912 915 918 921 924 927 930 933 936 939 942 945 948 951 954 957 960 963 966 969 972 975 978 981 984 987 990 993 996 999 1002 1005 1008 1011 1014 1017 1020 1023 1026 1029 1032 1035 1038 1041 1044 1047 1050 1053 1056 1059 1062 1065 1068 1071 1074 1077 1080 1083 1086 1089 1092 1095 1098 1101 1104 1107 1110 1113 1116 1119 1122 1125 1128 1131 1134 1137 1140 1143 1146 1149 1152 1155 1158 1161 1164 1167 1170 
				</DataArray>
			</Polys>
		</Piece>
	</PolyData>
</VTKFile>
